ISO-10303-21;
HEADER;
FILE_DESCRIPTION (( 'STEP AP214' ),
    '1' );
FILE_NAME ('SB-Spring.STEP',
    '2026-05-29T07:50:21',
    ( '' ),
    ( '' ),
    'SwSTEP 2.0',
    'SolidWorks 2026',
    '' );
FILE_SCHEMA (( 'AUTOMOTIVE_DESIGN' ));
ENDSEC;

DATA;
#1 = DIRECTION ( 'NONE',  ( -1.000000000000000000, 0.000000000000000000, 0.000000000000000000 ) ) ;
#2 = DIRECTION ( 'NONE',  ( 0.000000000000000000, 0.000000000000000000, 1.000000000000000000 ) ) ;
#3 = DIRECTION ( 'NONE',  ( 0.000000000000000000, 0.000000000000000000, 1.000000000000000000 ) ) ;
#4 = CIRCLE ( 'NONE', #41, 71.00000000000000000 ) ;
#5 = ORIENTED_EDGE ( 'NONE', *, *, #27, .T. ) ;
#6 = PRODUCT_CONTEXT ( 'NONE', #199, 'mechanical' ) ;
#7 = ORIENTED_EDGE ( 'NONE', *, *, #162, .F. ) ;
#8 = CARTESIAN_POINT ( 'NONE',  ( -29.32485343634987274, 7.539979463455498632, 10.00000000000000000 ) ) ;
#9 = CARTESIAN_POINT ( 'NONE',  ( -30.12428571428573676, 5.707485581880694880, 10.00000000000000000 ) ) ;
#10 = DIRECTION ( 'NONE',  ( -0.000000000000000000, -0.000000000000000000, -1.000000000000000000 ) ) ;
#11 = FACE_OUTER_BOUND ( 'NONE', #21, .T. ) ;
#12 = AXIS2_PLACEMENT_3D ( 'NONE', #123, #143, #125 ) ;
#13 = SURFACE_STYLE_USAGE ( .BOTH. , #135 ) ;
#14 = LINE ( 'NONE', #69, #145 ) ;
#15 = CIRCLE ( 'NONE', #44, 71.00000000000000000 ) ;
#16 = EDGE_LOOP ( 'NONE', ( #38, #77, #165, #130 ) ) ;
#17 = CARTESIAN_POINT ( 'NONE',  ( -30.70000000000000639, 6.613013953966871306, 10.00000000000000000 ) ) ;
#18 = CARTESIAN_POINT ( 'NONE',  ( 30.12428571428571544, 5.707485581880678893, 10.00000000000000000 ) ) ;
#19 = MECHANICAL_DESIGN_GEOMETRIC_PRESENTATION_REPRESENTATION (  '', ( #169 ), #179 ) ;
#20 = ORIENTED_EDGE ( 'NONE', *, *, #210, .T. ) ;
#21 = EDGE_LOOP ( 'NONE', ( #5, #127, #95, #196 ) ) ;
#22 = VERTEX_POINT ( 'NONE', #18 ) ;
#23 = CIRCLE ( 'NONE', #175, 78.16905785040428611 ) ;
#24 = ORIENTED_EDGE ( 'NONE', *, *, #128, .T. ) ;
#25 = AXIS2_PLACEMENT_3D ( 'NONE', #148, #3, #217 ) ;
#26 = CARTESIAN_POINT ( 'NONE',  ( -29.69999999999999929, 6.613013953966871306, -10.00000000000000000 ) ) ;
#27 = EDGE_CURVE ( 'NONE', #161, #93, #56, .T. ) ;
#28 = CARTESIAN_POINT ( 'NONE',  ( 29.32485343634984432, 7.539979463455484421, 10.00000000000000000 ) ) ;
#29 = LINE ( 'NONE', #63, #141 ) ;
#30 = ADVANCED_FACE ( 'NONE', ( #168 ), #185, .T. ) ;
#31 = DIRECTION ( 'NONE',  ( 1.000000000000000000, 0.000000000000000000, 0.000000000000000000 ) ) ;
#32 = DIRECTION ( 'NONE',  ( -0.000000000000000000, -0.000000000000000000, -1.000000000000000000 ) ) ;
#33 = CARTESIAN_POINT ( 'NONE',  ( 29.69999999999999929, 6.613013953966871306, 10.00000000000000000 ) ) ;
#34 = ADVANCED_FACE ( 'NONE', ( #203 ), #74, .F. ) ;
#35 = COLOUR_RGB ( '',0.7921568627450980005, 0.8196078431372548767, 0.9333333333333333481 ) ;
#36 = VERTEX_POINT ( 'NONE', #106 ) ;
#37 = DIRECTION ( 'NONE',  ( 0.000000000000000000, 0.000000000000000000, 1.000000000000000000 ) ) ;
#38 = ORIENTED_EDGE ( 'NONE', *, *, #171, .T. ) ;
#39 = ORIENTED_EDGE ( 'NONE', *, *, #140, .T. ) ;
#40 = CARTESIAN_POINT ( 'NONE',  ( 29.69999999999999929, 6.613013953966871306, -10.00000000000000000 ) ) ;
#41 = AXIS2_PLACEMENT_3D ( 'NONE', #191, #142, #31 ) ;
#42 = DIRECTION ( 'NONE',  ( -0.000000000000000000, -0.000000000000000000, -1.000000000000000000 ) ) ;
#44 = AXIS2_PLACEMENT_3D ( 'NONE', #174, #80, #137 ) ;
#43 = APPLICATION_PROTOCOL_DEFINITION ( 'draft international standard', 'automotive_design', 1998, #199 ) ;
#45 = CARTESIAN_POINT ( 'NONE',  ( 30.12428571428571544, 5.707485581880678893, 10.00000000000000000 ) ) ;
#46 = EDGE_CURVE ( 'NONE', #72, #167, #73, .T. ) ;
#47 = CYLINDRICAL_SURFACE ( 'NONE', #147, 1.000000000000004441 ) ;
#48 = DIRECTION ( 'NONE',  ( -0.000000000000000000, -0.000000000000000000, -1.000000000000000000 ) ) ;
#49 = ADVANCED_BREP_SHAPE_REPRESENTATION ( 'SB-Spring', ( #139, #194 ), #202 ) ;
#50 = PLANE ( 'NONE',  #82 ) ;
#51 = APPLICATION_CONTEXT ( 'automotive_design' ) ;
#52 = VERTEX_POINT ( 'NONE', #129 ) ;
#53 = ADVANCED_FACE ( 'NONE', ( #197 ), #181, .T. ) ;
#54 = AXIS2_PLACEMENT_3D ( 'NONE', #26, #229, #84 ) ;
#55 = PRODUCT_DEFINITION ( 'UNKNOWN', '', #64, #120 ) ;
#56 = CIRCLE ( 'NONE', #103, 1.000000000000004441 ) ;
#57 = ORIENTED_EDGE ( 'NONE', *, *, #154, .T. ) ;
#58 = ORIENTED_EDGE ( 'NONE', *, *, #224, .T. ) ;
#59 = ORIENTED_EDGE ( 'NONE', *, *, #46, .F. ) ;
#60 = ORIENTED_EDGE ( 'NONE', *, *, #104, .F. ) ;
#61 = CARTESIAN_POINT ( 'NONE',  ( 0.000000000000000000, 80.00000000000000000, 10.00000000000000000 ) ) ;
#62 = LINE ( 'NONE', #9, #116 ) ;
#63 = CARTESIAN_POINT ( 'NONE',  ( -29.32485343634987274, 7.539979463455498632, 10.00000000000000000 ) ) ;
#64 = PRODUCT_DEFINITION_FORMATION_WITH_SPECIFIED_SOURCE ( 'ANY', '', #70, .NOT_KNOWN. ) ;
#65 = UNCERTAINTY_MEASURE_WITH_UNIT (LENGTH_MEASURE( 1.000000000000000082E-05 ), #119, 'distance_accuracy_value', 'NONE');
#66 = CARTESIAN_POINT ( 'NONE',  ( 29.69999999999999929, 6.613013953966871306, 10.00000000000000000 ) ) ;
#67 = LINE ( 'NONE', #45, #177 ) ;
#68 = PRESENTATION_LAYER_ASSIGNMENT (  '', '', ( #169 ) ) ;
#69 = CARTESIAN_POINT ( 'NONE',  ( -30.70000000000000639, 6.613013953966871306, 10.00000000000000000 ) ) ;
#70 = PRODUCT ( 'SB-Spring', 'SB-Spring', '', ( #6 ) ) ;
#71 = PRODUCT_RELATED_PRODUCT_CATEGORY ( 'part', '', ( #70 ) ) ;
#72 = VERTEX_POINT ( 'NONE', #8 ) ;
#73 = CIRCLE ( 'NONE', #25, 1.000000000000004441 ) ;
#74 = CYLINDRICAL_SURFACE ( 'NONE', #228, 78.16905785040428611 ) ;
#75 = CARTESIAN_POINT ( 'NONE',  ( -29.69999999999999929, 6.613013953966871306, 10.00000000000000000 ) ) ;
#76 = ORIENTED_EDGE ( 'NONE', *, *, #128, .F. ) ;
#77 = ORIENTED_EDGE ( 'NONE', *, *, #131, .F. ) ;
#78 = CIRCLE ( 'NONE', #94, 78.16905785040428611 ) ;
#79 =( NAMED_UNIT ( * ) PLANE_ANGLE_UNIT ( ) SI_UNIT ( $, .RADIAN. ) );
#80 = DIRECTION ( 'NONE',  ( 0.000000000000000000, 0.000000000000000000, 1.000000000000000000 ) ) ;
#81 =( NAMED_UNIT ( * ) SI_UNIT ( $, .STERADIAN. ) SOLID_ANGLE_UNIT ( ) );
#82 = AXIS2_PLACEMENT_3D ( 'NONE', #209, #101, #230 ) ;
#83 = DIRECTION ( 'NONE',  ( -1.000000000000000000, 0.000000000000000000, 0.000000000000000000 ) ) ;
#84 = DIRECTION ( 'NONE',  ( 1.000000000000000000, 0.000000000000000000, 0.000000000000000000 ) ) ;
#85 = EDGE_CURVE ( 'NONE', #96, #93, #221, .T. ) ;
#86 =( NAMED_UNIT ( * ) PLANE_ANGLE_UNIT ( ) SI_UNIT ( $, .RADIAN. ) );
#87 = ORIENTED_EDGE ( 'NONE', *, *, #46, .T. ) ;
#88 = ADVANCED_FACE ( 'NONE', ( #204 ), #186, .T. ) ;
#89 = DIRECTION ( 'NONE',  ( 0.000000000000000000, 0.000000000000000000, 1.000000000000000000 ) ) ;
#90 = CARTESIAN_POINT ( 'NONE',  ( 0.000000000000000000, 0.000000000000000000, 0.000000000000000000 ) ) ;
#91 = ORIENTED_EDGE ( 'NONE', *, *, #150, .T. ) ;
#92 = PRODUCT_DEFINITION_SHAPE ( 'NONE', 'NONE',  #55 ) ;
#93 = VERTEX_POINT ( 'NONE', #226 ) ;
#94 = AXIS2_PLACEMENT_3D ( 'NONE', #98, #42, #100 ) ;
#95 = ORIENTED_EDGE ( 'NONE', *, *, #198, .F. ) ;
#96 = VERTEX_POINT ( 'NONE', #190 ) ;
#97 = DIRECTION ( 'NONE',  ( -1.000000000000000000, 0.000000000000000000, 0.000000000000000000 ) ) ;
#98 = CARTESIAN_POINT ( 'NONE',  ( 0.000000000000000000, 80.00000000000000000, -10.00000000000000000 ) ) ;
#99 = CARTESIAN_POINT ( 'NONE',  ( 0.000000000000000000, 70.00000000000000000, 10.00000000000000000 ) ) ;
#100 = DIRECTION ( 'NONE',  ( 1.000000000000000000, 0.000000000000000000, 0.000000000000000000 ) ) ;
#101 = DIRECTION ( 'NONE',  ( 0.000000000000000000, 0.000000000000000000, 1.000000000000000000 ) ) ;
#102 = FACE_OUTER_BOUND ( 'NONE', #134, .T. ) ;
#103 = AXIS2_PLACEMENT_3D ( 'NONE', #40, #89, #113 ) ;
#104 = EDGE_CURVE ( 'NONE', #105, #211, #62, .T. ) ;
#105 = VERTEX_POINT ( 'NONE', #153 ) ;
#106 = CARTESIAN_POINT ( 'NONE',  ( -29.32485343634987274, 7.539979463455498632, -10.00000000000000000 ) ) ;
#107 = ADVANCED_FACE ( 'NONE', ( #222 ), #47, .T. ) ;
#108 = ORIENTED_EDGE ( 'NONE', *, *, #111, .T. ) ;
#109 = EDGE_LOOP ( 'NONE', ( #87, #57, #108, #151, #91 ) ) ;
#110 = CIRCLE ( 'NONE', #12, 1.000000000000004441 ) ;
#111 = EDGE_CURVE ( 'NONE', #105, #22, #15, .T. ) ;
#112 = SHAPE_DEFINITION_REPRESENTATION ( #92, #49 ) ;
#113 = DIRECTION ( 'NONE',  ( 1.000000000000000000, 0.000000000000000000, 0.000000000000000000 ) ) ;
#114 = APPLICATION_PROTOCOL_DEFINITION ( 'draft international standard', 'automotive_design', 1998, #51 ) ;
#115 = CARTESIAN_POINT ( 'NONE',  ( 30.12428571428571544, 5.707485581880678893, -10.00000000000000000 ) ) ;
#116 = VECTOR ( 'NONE', #173, 1000.000000000000000 ) ;
#117 = PRESENTATION_STYLE_ASSIGNMENT (( #13 ) ) ;
#118 = FILL_AREA_STYLE_COLOUR ( '', #35 ) ;
#119 =( LENGTH_UNIT ( ) NAMED_UNIT ( * ) SI_UNIT ( .MILLI., .METRE. ) );
#120 = PRODUCT_DEFINITION_CONTEXT ( 'detailed design', #51, 'design' ) ;
#121 = DIRECTION ( 'NONE',  ( 0.000000000000000000, 0.000000000000000000, 1.000000000000000000 ) ) ;
#122 =( NAMED_UNIT ( * ) SI_UNIT ( $, .STERADIAN. ) SOLID_ANGLE_UNIT ( ) );
#123 = CARTESIAN_POINT ( 'NONE',  ( -29.69999999999999929, 6.613013953966871306, -10.00000000000000000 ) ) ;
#124 = ORIENTED_EDGE ( 'NONE', *, *, #171, .F. ) ;
#125 = DIRECTION ( 'NONE',  ( 1.000000000000000000, 0.000000000000000000, 0.000000000000000000 ) ) ;
#126 = CIRCLE ( 'NONE', #54, 1.000000000000004441 ) ;
#127 = ORIENTED_EDGE ( 'NONE', *, *, #85, .F. ) ;
#128 = EDGE_CURVE ( 'NONE', #72, #36, #29, .T. ) ;
#129 = CARTESIAN_POINT ( 'NONE',  ( -30.70000000000000639, 6.613013953966871306, -10.00000000000000000 ) ) ;
#130 = ORIENTED_EDGE ( 'NONE', *, *, #104, .T. ) ;
#131 = EDGE_CURVE ( 'NONE', #22, #161, #67, .T. ) ;
#132 = EDGE_LOOP ( 'NONE', ( #180, #58, #20, #60 ) ) ;
#133 = AXIS2_PLACEMENT_3D ( 'NONE', #33, #193, #192 ) ;
#134 = EDGE_LOOP ( 'NONE', ( #7, #201, #216, #124, #152 ) ) ;
#135 = SURFACE_SIDE_STYLE ('',( #155 ) ) ;
#136 = DIRECTION ( 'NONE',  ( -0.000000000000000000, -0.000000000000000000, -1.000000000000000000 ) ) ;
#137 = DIRECTION ( 'NONE',  ( 1.000000000000000000, 0.000000000000000000, 0.000000000000000000 ) ) ;
#138 = DIRECTION ( 'NONE',  ( -0.000000000000000000, -0.000000000000000000, -1.000000000000000000 ) ) ;
#139 = MANIFOLD_SOLID_BREP ( 'Stock-RFID_Box_Card_Extension-1', #215 ) ;
#140 = EDGE_CURVE ( 'NONE', #93, #36, #78, .T. ) ;
#141 = VECTOR ( 'NONE', #208, 1000.000000000000000 ) ;
#142 = DIRECTION ( 'NONE',  ( 0.000000000000000000, 0.000000000000000000, 1.000000000000000000 ) ) ;
#143 = DIRECTION ( 'NONE',  ( 0.000000000000000000, 0.000000000000000000, 1.000000000000000000 ) ) ;
#144 = ADVANCED_FACE ( 'NONE', ( #11 ), #188, .T. ) ;
#145 = VECTOR ( 'NONE', #32, 1000.000000000000000 ) ;
#146 = ORIENTED_EDGE ( 'NONE', *, *, #150, .F. ) ;
#147 = AXIS2_PLACEMENT_3D ( 'NONE', #207, #157, #83 ) ;
#148 = CARTESIAN_POINT ( 'NONE',  ( -29.69999999999999929, 6.613013953966871306, 10.00000000000000000 ) ) ;
#149 = DIRECTION ( 'NONE',  ( -0.000000000000000000, -0.000000000000000000, -1.000000000000000000 ) ) ;
#150 = EDGE_CURVE ( 'NONE', #96, #72, #23, .T. ) ;
#151 = ORIENTED_EDGE ( 'NONE', *, *, #198, .T. ) ;
#152 = ORIENTED_EDGE ( 'NONE', *, *, #210, .F. ) ;
#153 = CARTESIAN_POINT ( 'NONE',  ( -30.12428571428573676, 5.707485581880694880, 10.00000000000000000 ) ) ;
#154 = EDGE_CURVE ( 'NONE', #167, #105, #184, .T. ) ;
#155 = SURFACE_STYLE_FILL_AREA ( #223 ) ;
#156 = DIRECTION ( 'NONE',  ( -0.000000000000000000, -0.000000000000000000, -1.000000000000000000 ) ) ;
#157 = DIRECTION ( 'NONE',  ( -0.000000000000000000, -0.000000000000000000, -1.000000000000000000 ) ) ;
#158 = AXIS2_PLACEMENT_3D ( 'NONE', #66, #48, #159 ) ;
#159 = DIRECTION ( 'NONE',  ( -1.000000000000000000, 0.000000000000000000, 0.000000000000000000 ) ) ;
#160 = AXIS2_PLACEMENT_3D ( 'NONE', #99, #10, #97 ) ;
#161 = VERTEX_POINT ( 'NONE', #115 ) ;
#162 = EDGE_CURVE ( 'NONE', #36, #52, #126, .T. ) ;
#163 = DIRECTION ( 'NONE',  ( -0.000000000000000000, -0.000000000000000000, -1.000000000000000000 ) ) ;
#164 = DIRECTION ( 'NONE',  ( 1.000000000000000000, 0.000000000000000000, 0.000000000000000000 ) ) ;
#165 = ORIENTED_EDGE ( 'NONE', *, *, #111, .F. ) ;
#166 = CARTESIAN_POINT ( 'NONE',  ( -14.84999999999999964, 38.30650697698344231, 10.00000000000000000 ) ) ;
#167 = VERTEX_POINT ( 'NONE', #17 ) ;
#168 = FACE_OUTER_BOUND ( 'NONE', #109, .T. ) ;
#169 = STYLED_ITEM ( 'NONE', ( #117 ), #139 ) ;
#170 = CARTESIAN_POINT ( 'NONE',  ( -29.69999999999999929, 6.613013953966871306, 10.00000000000000000 ) ) ;
#171 = EDGE_CURVE ( 'NONE', #211, #161, #4, .T. ) ;
#172 = CARTESIAN_POINT ( 'NONE',  ( 0.000000000000000000, 80.00000000000000000, 10.00000000000000000 ) ) ;
#173 = DIRECTION ( 'NONE',  ( -0.000000000000000000, -0.000000000000000000, -1.000000000000000000 ) ) ;
#174 = CARTESIAN_POINT ( 'NONE',  ( 0.000000000000000000, 70.00000000000000000, 10.00000000000000000 ) ) ;
#175 = AXIS2_PLACEMENT_3D ( 'NONE', #172, #136, #206 ) ;
#176 = CARTESIAN_POINT ( 'NONE',  ( -30.12428571428573676, 5.707485581880694880, -10.00000000000000000 ) ) ;
#177 = VECTOR ( 'NONE', #156, 1000.000000000000000 ) ;
#178 = ORIENTED_EDGE ( 'NONE', *, *, #162, .T. ) ;
#179 =( GEOMETRIC_REPRESENTATION_CONTEXT ( 3 ) GLOBAL_UNCERTAINTY_ASSIGNED_CONTEXT ( ( #65 ) ) GLOBAL_UNIT_ASSIGNED_CONTEXT ( ( #119, #79, #81 ) ) REPRESENTATION_CONTEXT ( 'NONE', 'WORKASPACE' ) );
#180 = ORIENTED_EDGE ( 'NONE', *, *, #154, .F. ) ;
#181 = CYLINDRICAL_SURFACE ( 'NONE', #187, 1.000000000000004441 ) ;
#182 = ADVANCED_FACE ( 'NONE', ( #102 ), #50, .F. ) ;
#183 = EDGE_LOOP ( 'NONE', ( #39, #76, #146, #218 ) ) ;
#184 = CIRCLE ( 'NONE', #225, 1.000000000000004441 ) ;
#185 = PLANE ( 'NONE',  #195 ) ;
#186 = CYLINDRICAL_SURFACE ( 'NONE', #160, 71.00000000000000000 ) ;
#187 = AXIS2_PLACEMENT_3D ( 'NONE', #75, #149, #189 ) ;
#188 = CYLINDRICAL_SURFACE ( 'NONE', #158, 1.000000000000004441 ) ;
#189 = DIRECTION ( 'NONE',  ( -1.000000000000000000, 0.000000000000000000, 0.000000000000000000 ) ) ;
#190 = CARTESIAN_POINT ( 'NONE',  ( 29.32485343634984432, 7.539979463455484421, 10.00000000000000000 ) ) ;
#191 = CARTESIAN_POINT ( 'NONE',  ( 0.000000000000000000, 70.00000000000000000, -10.00000000000000000 ) ) ;
#192 = DIRECTION ( 'NONE',  ( 1.000000000000000000, 0.000000000000000000, 0.000000000000000000 ) ) ;
#193 = DIRECTION ( 'NONE',  ( 0.000000000000000000, 0.000000000000000000, 1.000000000000000000 ) ) ;
#194 = AXIS2_PLACEMENT_3D ( 'NONE', #90, #37, #164 ) ;
#195 = AXIS2_PLACEMENT_3D ( 'NONE', #166, #2, #220 ) ;
#196 = ORIENTED_EDGE ( 'NONE', *, *, #131, .T. ) ;
#197 = FACE_OUTER_BOUND ( 'NONE', #200, .T. ) ;
#198 = EDGE_CURVE ( 'NONE', #22, #96, #214, .T. ) ;
#199 = APPLICATION_CONTEXT ( 'automotive_design' ) ;
#200 = EDGE_LOOP ( 'NONE', ( #219, #59, #24, #178 ) ) ;
#201 = ORIENTED_EDGE ( 'NONE', *, *, #140, .F. ) ;
#202 =( GEOMETRIC_REPRESENTATION_CONTEXT ( 3 ) GLOBAL_UNCERTAINTY_ASSIGNED_CONTEXT ( ( #213 ) ) GLOBAL_UNIT_ASSIGNED_CONTEXT ( ( #212, #86, #122 ) ) REPRESENTATION_CONTEXT ( 'NONE', 'WORKASPACE' ) );
#203 = FACE_OUTER_BOUND ( 'NONE', #183, .T. ) ;
#204 = FACE_OUTER_BOUND ( 'NONE', #16, .T. ) ;
#205 = VECTOR ( 'NONE', #138, 1000.000000000000000 ) ;
#206 = DIRECTION ( 'NONE',  ( 1.000000000000000000, 0.000000000000000000, 0.000000000000000000 ) ) ;
#207 = CARTESIAN_POINT ( 'NONE',  ( -29.69999999999999929, 6.613013953966871306, 10.00000000000000000 ) ) ;
#208 = DIRECTION ( 'NONE',  ( -0.000000000000000000, -0.000000000000000000, -1.000000000000000000 ) ) ;
#209 = CARTESIAN_POINT ( 'NONE',  ( -14.84999999999999964, 38.30650697698344231, -10.00000000000000000 ) ) ;
#210 = EDGE_CURVE ( 'NONE', #52, #211, #110, .T. ) ;
#211 = VERTEX_POINT ( 'NONE', #176 ) ;
#212 =( LENGTH_UNIT ( ) NAMED_UNIT ( * ) SI_UNIT ( .MILLI., .METRE. ) );
#213 = UNCERTAINTY_MEASURE_WITH_UNIT (LENGTH_MEASURE( 1.000000000000000082E-05 ), #212, 'distance_accuracy_value', 'NONE');
#214 = CIRCLE ( 'NONE', #133, 1.000000000000004441 ) ;
#215 = CLOSED_SHELL ( 'NONE', ( #107, #53, #88, #144, #34, #30, #182 ) ) ;
#216 = ORIENTED_EDGE ( 'NONE', *, *, #27, .F. ) ;
#217 = DIRECTION ( 'NONE',  ( 1.000000000000000000, 0.000000000000000000, 0.000000000000000000 ) ) ;
#218 = ORIENTED_EDGE ( 'NONE', *, *, #85, .T. ) ;
#219 = ORIENTED_EDGE ( 'NONE', *, *, #224, .F. ) ;
#220 = DIRECTION ( 'NONE',  ( 1.000000000000000000, 0.000000000000000000, -0.000000000000000000 ) ) ;
#221 = LINE ( 'NONE', #28, #205 ) ;
#222 = FACE_OUTER_BOUND ( 'NONE', #132, .T. ) ;
#223 = FILL_AREA_STYLE ('',( #118 ) ) ;
#224 = EDGE_CURVE ( 'NONE', #167, #52, #14, .T. ) ;
#225 = AXIS2_PLACEMENT_3D ( 'NONE', #170, #121, #227 ) ;
#226 = CARTESIAN_POINT ( 'NONE',  ( 29.32485343634984432, 7.539979463455484421, -10.00000000000000000 ) ) ;
#227 = DIRECTION ( 'NONE',  ( 1.000000000000000000, 0.000000000000000000, 0.000000000000000000 ) ) ;
#228 = AXIS2_PLACEMENT_3D ( 'NONE', #61, #163, #1 ) ;
#229 = DIRECTION ( 'NONE',  ( 0.000000000000000000, 0.000000000000000000, 1.000000000000000000 ) ) ;
#230 = DIRECTION ( 'NONE',  ( 1.000000000000000000, 0.000000000000000000, -0.000000000000000000 ) ) ;
ENDSEC;
END-ISO-10303-21;
