ISO-10303-21;
HEADER;
FILE_DESCRIPTION (( 'STEP AP214' ),
    '1' );
FILE_NAME ('Finder_41.52.STEP',
    '2026-06-24T06:07:01',
    ( '' ),
    ( '' ),
    'SwSTEP 2.0',
    'SolidWorks 2026',
    '' );
FILE_SCHEMA (( 'AUTOMOTIVE_DESIGN' ));
ENDSEC;

DATA;
#1 =( NAMED_UNIT ( * ) SI_UNIT ( $, .STERADIAN. ) SOLID_ANGLE_UNIT ( ) );
#2 = DIRECTION ( 'NONE',  ( 0.000000000000000000, 0.000000000000000000, -1.000000000000000000 ) ) ;
#3 = DIRECTION ( 'NONE',  ( 0.000000000000000000, 1.000000000000000000, 0.000000000000000000 ) ) ;
#4 = AXIS2_PLACEMENT_3D ( 'NONE', #76, #822, #702 ) ;
#5 = CARTESIAN_POINT ( 'NONE',  ( 3.750000000000002220, -3.799999999999999822, 12.58999999999999631 ) ) ;
#6 = CARTESIAN_POINT ( 'NONE',  ( -3.749999999999998668, 0.000000000000000000, -12.41000000000000014 ) ) ;
#7 = ORIENTED_EDGE ( 'NONE', *, *, #551, .T. ) ;
#8 = LINE ( 'NONE', #775, #679 ) ;
#9 = FILL_AREA_STYLE_COLOUR ( '', #761 ) ;
#10 = APPLICATION_PROTOCOL_DEFINITION ( 'draft international standard', 'automotive_design', 1998, #490 ) ;
#11 = EDGE_CURVE ( 'NONE', #96, #365, #747, .T. ) ;
#12 = EDGE_CURVE ( 'NONE', #159, #75, #468, .T. ) ;
#13 = CIRCLE ( 'NONE', #161, 0.4500000000000007327 ) ;
#14 = ORIENTED_EDGE ( 'NONE', *, *, #396, .T. ) ;
#15 = AXIS2_PLACEMENT_3D ( 'NONE', #228, #341, #473 ) ;
#16 = CARTESIAN_POINT ( 'NONE',  ( 3.749999999999996003, 0.000000000000000000, -11.96000000000000085 ) ) ;
#17 = CARTESIAN_POINT ( 'NONE',  ( -3.749999999999998668, 0.000000000000000000, 13.03999999999999737 ) ) ;
#18 = CIRCLE ( 'NONE', #144, 0.4500000000000007327 ) ;
#19 = DIRECTION ( 'NONE',  ( 0.000000000000000000, 0.000000000000000000, 1.000000000000000000 ) ) ;
#20 = EDGE_CURVE ( 'NONE', #369, #509, #165, .T. ) ;
#21 = AXIS2_PLACEMENT_3D ( 'NONE', #638, #521, #185 ) ;
#22 = LINE ( 'NONE', #411, #441 ) ;
#23 = EDGE_LOOP ( 'NONE', ( #356, #607 ) ) ;
#24 = CIRCLE ( 'NONE', #732, 0.4500000000000007327 ) ;
#25 = EDGE_CURVE ( 'NONE', #615, #601, #103, .T. ) ;
#26 = ORIENTED_EDGE ( 'NONE', *, *, #718, .T. ) ;
#27 = CYLINDRICAL_SURFACE ( 'NONE', #174, 0.4500000000000007327 ) ;
#28 = FACE_BOUND ( 'NONE', #23, .T. ) ;
#29 = ORIENTED_EDGE ( 'NONE', *, *, #187, .F. ) ;
#30 = DIRECTION ( 'NONE',  ( 0.000000000000000000, 1.000000000000000000, 0.000000000000000000 ) ) ;
#31 = FACE_BOUND ( 'NONE', #146, .T. ) ;
#32 = ORIENTED_EDGE ( 'NONE', *, *, #731, .F. ) ;
#33 = CARTESIAN_POINT ( 'NONE',  ( 3.749999999999999556, 0.000000000000000000, 3.039999999999999147 ) ) ;
#34 = ADVANCED_FACE ( 'NONE', ( #294 ), #353, .F. ) ;
#35 = DIRECTION ( 'NONE',  ( 0.000000000000000000, 0.000000000000000000, -1.000000000000000000 ) ) ;
#36 = EDGE_LOOP ( 'NONE', ( #251, #444 ) ) ;
#37 = STYLED_ITEM ( 'NONE', ( #256 ), #215 ) ;
#38 = DIRECTION ( 'NONE',  ( 0.000000000000000000, 0.000000000000000000, -1.000000000000000000 ) ) ;
#39 = VECTOR ( 'NONE', #598, 1000.000000000000000 ) ;
#40 = ORIENTED_EDGE ( 'NONE', *, *, #555, .F. ) ;
#41 = AXIS2_PLACEMENT_3D ( 'NONE', #707, #323, #147 ) ;
#42 = DIRECTION ( 'NONE',  ( 0.000000000000000000, 1.000000000000000000, 0.000000000000000000 ) ) ;
#43 = CARTESIAN_POINT ( 'NONE',  ( 3.750000000000002220, -3.799999999999999822, 13.48999999999999844 ) ) ;
#44 = EDGE_CURVE ( 'NONE', #687, #89, #336, .T. ) ;
#45 = ORIENTED_EDGE ( 'NONE', *, *, #62, .T. ) ;
#46 = FACE_OUTER_BOUND ( 'NONE', #654, .T. ) ;
#47 = CARTESIAN_POINT ( 'NONE',  ( 6.250000000000000000, 15.69999999999999929, 14.50000000000000000 ) ) ;
#48 = VECTOR ( 'NONE', #190, 1000.000000000000000 ) ;
#49 = EDGE_LOOP ( 'NONE', ( #53, #45, #701, #736 ) ) ;
#50 = CARTESIAN_POINT ( 'NONE',  ( -3.749999999999998668, -3.799999999999999822, 13.48999999999999844 ) ) ;
#51 = ORIENTED_EDGE ( 'NONE', *, *, #686, .T. ) ;
#52 = CIRCLE ( 'NONE', #497, 0.4500000000000007327 ) ;
#53 = ORIENTED_EDGE ( 'NONE', *, *, #445, .T. ) ;
#54 = CARTESIAN_POINT ( 'NONE',  ( -3.749999999999998668, -3.799999999999999822, 13.03999999999999737 ) ) ;
#55 = DIRECTION ( 'NONE',  ( 0.000000000000000000, 1.000000000000000000, 0.000000000000000000 ) ) ;
#56 = DIRECTION ( 'NONE',  ( 0.000000000000000000, 1.000000000000000000, 0.000000000000000000 ) ) ;
#57 = DIRECTION ( 'NONE',  ( 0.000000000000000000, 1.000000000000000000, -0.000000000000000000 ) ) ;
#58 = AXIS2_PLACEMENT_3D ( 'NONE', #577, #697, #80 ) ;
#59 = ORIENTED_EDGE ( 'NONE', *, *, #415, .T. ) ;
#60 = DIRECTION ( 'NONE',  ( 0.000000000000000000, 0.000000000000000000, 1.000000000000000000 ) ) ;
#61 = DIRECTION ( 'NONE',  ( 0.000000000000000000, 0.000000000000000000, 1.000000000000000000 ) ) ;
#62 = EDGE_CURVE ( 'NONE', #232, #486, #404, .T. ) ;
#63 = EDGE_LOOP ( 'NONE', ( #107, #689 ) ) ;
#64 = CARTESIAN_POINT ( 'NONE',  ( 6.250000000000000000, 0.000000000000000000, -14.50000000000000000 ) ) ;
#65 = VERTEX_POINT ( 'NONE', #730 ) ;
#66 = AXIS2_PLACEMENT_3D ( 'NONE', #684, #379, #619 ) ;
#67 = CARTESIAN_POINT ( 'NONE',  ( 3.749999999999999556, 0.000000000000000000, 2.589999999999998526 ) ) ;
#68 = DIRECTION ( 'NONE',  ( 0.000000000000000000, 1.000000000000000000, 0.000000000000000000 ) ) ;
#69 = VERTEX_POINT ( 'NONE', #483 ) ;
#70 = CIRCLE ( 'NONE', #258, 0.4500000000000007327 ) ;
#71 = LINE ( 'NONE', #768, #364 ) ;
#72 = DIRECTION ( 'NONE',  ( 0.000000000000000000, 1.000000000000000000, -0.000000000000000000 ) ) ;
#73 = PLANE ( 'NONE',  #546 ) ;
#74 = DIRECTION ( 'NONE',  ( 0.000000000000000000, 1.000000000000000000, 0.000000000000000000 ) ) ;
#75 = VERTEX_POINT ( 'NONE', #157 ) ;
#76 = CARTESIAN_POINT ( 'NONE',  ( 6.250000000000000000, 15.69999999999999929, 14.50000000000000000 ) ) ;
#77 = EDGE_CURVE ( 'NONE', #429, #677, #783, .T. ) ;
#78 =( NAMED_UNIT ( * ) PLANE_ANGLE_UNIT ( ) SI_UNIT ( $, .RADIAN. ) );
#79 = EDGE_LOOP ( 'NONE', ( #319, #618, #59, #14 ) ) ;
#80 = DIRECTION ( 'NONE',  ( 0.000000000000000000, -0.000000000000000000, -1.000000000000000000 ) ) ;
#81 = DIRECTION ( 'NONE',  ( 0.000000000000000000, 1.000000000000000000, 0.000000000000000000 ) ) ;
#82 =( LENGTH_UNIT ( ) NAMED_UNIT ( * ) SI_UNIT ( .MILLI., .METRE. ) );
#83 = VECTOR ( 'NONE', #68, 1000.000000000000000 ) ;
#84 = VECTOR ( 'NONE', #545, 1000.000000000000000 ) ;
#85 = FACE_BOUND ( 'NONE', #63, .T. ) ;
#86 = DIRECTION ( 'NONE',  ( 0.000000000000000000, 0.000000000000000000, 1.000000000000000000 ) ) ;
#87 = DIRECTION ( 'NONE',  ( 0.000000000000000000, 0.000000000000000000, 1.000000000000000000 ) ) ;
#88 = AXIS2_PLACEMENT_3D ( 'NONE', #99, #408, #602 ) ;
#89 = VERTEX_POINT ( 'NONE', #288 ) ;
#90 = VECTOR ( 'NONE', #573, 1000.000000000000000 ) ;
#91 = ADVANCED_FACE ( 'NONE', ( #160 ), #793, .T. ) ;
#92 = EDGE_LOOP ( 'NONE', ( #133, #792 ) ) ;
#93 = VERTEX_POINT ( 'NONE', #592 ) ;
#94 = DIRECTION ( 'NONE',  ( 0.000000000000000000, -1.000000000000000000, 0.000000000000000000 ) ) ;
#95 = AXIS2_PLACEMENT_3D ( 'NONE', #505, #678, #114 ) ;
#96 = VERTEX_POINT ( 'NONE', #540 ) ;
#97 = CARTESIAN_POINT ( 'NONE',  ( -3.749999999999998668, -3.799999999999999822, 13.03999999999999737 ) ) ;
#98 = VECTOR ( 'NONE', #123, 1000.000000000000000 ) ;
#99 = CARTESIAN_POINT ( 'NONE',  ( -3.749999999999998668, 0.000000000000000000, -11.96000000000000085 ) ) ;
#100 = ADVANCED_FACE ( 'NONE', ( #595 ), #27, .T. ) ;
#101 = EDGE_LOOP ( 'NONE', ( #594, #306, #111, #645 ) ) ;
#102 = ADVANCED_FACE ( 'NONE', ( #737 ), #189, .T. ) ;
#103 = LINE ( 'NONE', #216, #321 ) ;
#104 = CARTESIAN_POINT ( 'NONE',  ( -3.749999999999998668, -3.799999999999999822, 7.590000000000000746 ) ) ;
#105 = ORIENTED_EDGE ( 'NONE', *, *, #231, .T. ) ;
#106 = ORIENTED_EDGE ( 'NONE', *, *, #335, .F. ) ;
#107 = ORIENTED_EDGE ( 'NONE', *, *, #519, .T. ) ;
#108 = AXIS2_PLACEMENT_3D ( 'NONE', #33, #537, #38 ) ;
#109 = ADVANCED_FACE ( 'NONE', ( #504 ), #745, .F. ) ;
#110 = CARTESIAN_POINT ( 'NONE',  ( -3.749999999999998668, 0.000000000000000000, 12.58999999999999631 ) ) ;
#111 = ORIENTED_EDGE ( 'NONE', *, *, #584, .T. ) ;
#112 = CIRCLE ( 'NONE', #340, 0.4500000000000007327 ) ;
#113 = CARTESIAN_POINT ( 'NONE',  ( -3.749999999999998668, -3.799999999999999822, -11.50999999999999979 ) ) ;
#114 = DIRECTION ( 'NONE',  ( 0.000000000000000000, 0.000000000000000000, 1.000000000000000000 ) ) ;
#115 = EDGE_CURVE ( 'NONE', #556, #452, #596, .T. ) ;
#116 = CARTESIAN_POINT ( 'NONE',  ( 6.250000000000000000, 15.69999999999999929, -14.50000000000000000 ) ) ;
#117 = EDGE_LOOP ( 'NONE', ( #221, #729 ) ) ;
#118 = FACE_OUTER_BOUND ( 'NONE', #79, .T. ) ;
#119 = LINE ( 'NONE', #50, #275 ) ;
#120 = ORIENTED_EDGE ( 'NONE', *, *, #532, .T. ) ;
#121 = FACE_OUTER_BOUND ( 'NONE', #661, .T. ) ;
#122 = ORIENTED_EDGE ( 'NONE', *, *, #271, .T. ) ;
#123 = DIRECTION ( 'NONE',  ( 0.000000000000000000, 0.000000000000000000, -1.000000000000000000 ) ) ;
#124 = AXIS2_PLACEMENT_3D ( 'NONE', #674, #439, #236 ) ;
#125 = ORIENTED_EDGE ( 'NONE', *, *, #307, .F. ) ;
#126 = DIRECTION ( 'NONE',  ( 0.000000000000000000, 1.000000000000000000, 0.000000000000000000 ) ) ;
#127 = AXIS2_PLACEMENT_3D ( 'NONE', #254, #528, #471 ) ;
#128 = VERTEX_POINT ( 'NONE', #113 ) ;
#129 = ADVANCED_FACE ( 'NONE', ( #118 ), #487, .T. ) ;
#130 = ADVANCED_FACE ( 'NONE', ( #246 ), #420, .T. ) ;
#131 = DIRECTION ( 'NONE',  ( 0.000000000000000000, 1.000000000000000000, 0.000000000000000000 ) ) ;
#132 = LINE ( 'NONE', #5, #90 ) ;
#133 = ORIENTED_EDGE ( 'NONE', *, *, #445, .F. ) ;
#134 = DIRECTION ( 'NONE',  ( 0.000000000000000000, 1.000000000000000000, 0.000000000000000000 ) ) ;
#135 = DIRECTION ( 'NONE',  ( 0.000000000000000000, 0.000000000000000000, 1.000000000000000000 ) ) ;
#136 = VERTEX_POINT ( 'NONE', #492 ) ;
#137 = DIRECTION ( 'NONE',  ( -0.000000000000000000, -1.000000000000000000, -0.000000000000000000 ) ) ;
#138 = AXIS2_PLACEMENT_3D ( 'NONE', #812, #826, #617 ) ;
#139 = EDGE_CURVE ( 'NONE', #677, #429, #589, .T. ) ;
#140 = AXIS2_PLACEMENT_3D ( 'NONE', #406, #30, #722 ) ;
#141 = DIRECTION ( 'NONE',  ( 0.000000000000000000, 1.000000000000000000, -0.000000000000000000 ) ) ;
#142 = EDGE_CURVE ( 'NONE', #232, #623, #226, .T. ) ;
#143 = DIRECTION ( 'NONE',  ( 0.000000000000000000, 0.000000000000000000, -1.000000000000000000 ) ) ;
#144 = AXIS2_PLACEMENT_3D ( 'NONE', #282, #72, #265 ) ;
#145 = DIRECTION ( 'NONE',  ( 0.000000000000000000, 0.000000000000000000, 1.000000000000000000 ) ) ;
#146 = EDGE_LOOP ( 'NONE', ( #807, #164 ) ) ;
#147 = DIRECTION ( 'NONE',  ( 0.000000000000000000, -0.000000000000000000, 1.000000000000000000 ) ) ;
#148 = PRODUCT_DEFINITION ( 'UNKNOWN', '', #435, #726 ) ;
#149 = FACE_OUTER_BOUND ( 'NONE', #298, .T. ) ;
#150 = ORIENTED_EDGE ( 'NONE', *, *, #719, .T. ) ;
#151 = CARTESIAN_POINT ( 'NONE',  ( 3.749999999999999556, -3.799999999999999822, 2.589999999999998526 ) ) ;
#152 = CIRCLE ( 'NONE', #95, 0.4500000000000007327 ) ;
#153 = MECHANICAL_DESIGN_GEOMETRIC_PRESENTATION_REPRESENTATION (  '', ( #37 ), #534 ) ;
#154 = CYLINDRICAL_SURFACE ( 'NONE', #597, 0.4500000000000007327 ) ;
#155 = DIRECTION ( 'NONE',  ( 0.000000000000000000, 1.000000000000000000, 0.000000000000000000 ) ) ;
#156 = DIRECTION ( 'NONE',  ( 0.000000000000000000, 1.000000000000000000, 0.000000000000000000 ) ) ;
#157 = CARTESIAN_POINT ( 'NONE',  ( 3.749999999999999556, 0.000000000000000000, 3.490000000000000213 ) ) ;
#158 = CARTESIAN_POINT ( 'NONE',  ( -3.749999999999998668, 0.000000000000000000, 8.040000000000000924 ) ) ;
#159 = VERTEX_POINT ( 'NONE', #67 ) ;
#160 = FACE_OUTER_BOUND ( 'NONE', #482, .T. ) ;
#161 = AXIS2_PLACEMENT_3D ( 'NONE', #816, #434, #688 ) ;
#162 = EDGE_CURVE ( 'NONE', #136, #128, #675, .T. ) ;
#163 = CYLINDRICAL_SURFACE ( 'NONE', #620, 0.4500000000000007327 ) ;
#164 = ORIENTED_EDGE ( 'NONE', *, *, #359, .T. ) ;
#165 = LINE ( 'NONE', #350, #84 ) ;
#166 = PLANE ( 'NONE',  #181 ) ;
#167 = ORIENTED_EDGE ( 'NONE', *, *, #12, .F. ) ;
#168 = ORIENTED_EDGE ( 'NONE', *, *, #44, .F. ) ;
#169 = VECTOR ( 'NONE', #582, 1000.000000000000000 ) ;
#170 = AXIS2_PLACEMENT_3D ( 'NONE', #516, #772, #632 ) ;
#171 = ORIENTED_EDGE ( 'NONE', *, *, #211, .T. ) ;
#172 = DIRECTION ( 'NONE',  ( 0.000000000000000000, -0.000000000000000000, 1.000000000000000000 ) ) ;
#173 = EDGE_LOOP ( 'NONE', ( #315, #376, #383, #120 ) ) ;
#174 = AXIS2_PLACEMENT_3D ( 'NONE', #97, #222, #414 ) ;
#175 = LINE ( 'NONE', #184, #83 ) ;
#176 = AXIS2_PLACEMENT_3D ( 'NONE', #676, #421, #554 ) ;
#177 = CARTESIAN_POINT ( 'NONE',  ( -3.749999999999998668, -3.799999999999999822, -11.96000000000000085 ) ) ;
#178 = AXIS2_PLACEMENT_3D ( 'NONE', #295, #94, #803 ) ;
#179 = EDGE_LOOP ( 'NONE', ( #183, #442 ) ) ;
#180 = CARTESIAN_POINT ( 'NONE',  ( -6.250000000000000000, 0.000000000000000000, 14.50000000000000000 ) ) ;
#181 = AXIS2_PLACEMENT_3D ( 'NONE', #611, #668, #614 ) ;
#182 = LINE ( 'NONE', #104, #284 ) ;
#183 = ORIENTED_EDGE ( 'NONE', *, *, #542, .F. ) ;
#184 = CARTESIAN_POINT ( 'NONE',  ( 3.750000000000000444, -3.799999999999999822, 7.589999999999999858 ) ) ;
#185 = DIRECTION ( 'NONE',  ( 0.000000000000000000, 0.000000000000000000, -1.000000000000000000 ) ) ;
#186 = ADVANCED_FACE ( 'NONE', ( #446 ), #73, .F. ) ;
#187 = EDGE_CURVE ( 'NONE', #778, #433, #191, .T. ) ;
#188 = ORIENTED_EDGE ( 'NONE', *, *, #551, .F. ) ;
#189 = CYLINDRICAL_SURFACE ( 'NONE', #690, 0.4500000000000007327 ) ;
#190 = DIRECTION ( 'NONE',  ( -0.000000000000000000, -0.000000000000000000, 1.000000000000000000 ) ) ;
#191 = CIRCLE ( 'NONE', #292, 0.4500000000000007327 ) ;
#192 = CARTESIAN_POINT ( 'NONE',  ( 3.749999999999996003, 0.000000000000000000, -12.41000000000000014 ) ) ;
#193 = ORIENTED_EDGE ( 'NONE', *, *, #12, .T. ) ;
#194 = DIRECTION ( 'NONE',  ( 1.000000000000000000, -0.000000000000000000, 0.000000000000000000 ) ) ;
#195 = DIRECTION ( 'NONE',  ( 0.000000000000000000, 1.000000000000000000, -0.000000000000000000 ) ) ;
#196 = PLANE ( 'NONE',  #4 ) ;
#197 = SURFACE_STYLE_USAGE ( .BOTH. , #463 ) ;
#198 = EDGE_CURVE ( 'NONE', #461, #750, #70, .T. ) ;
#199 = EDGE_LOOP ( 'NONE', ( #188, #122, #26, #203 ) ) ;
#200 = FACE_OUTER_BOUND ( 'NONE', #92, .T. ) ;
#201 = CARTESIAN_POINT ( 'NONE',  ( -3.749999999999998668, 0.000000000000000000, 8.490000000000000213 ) ) ;
#202 = EDGE_CURVE ( 'NONE', #452, #556, #721, .T. ) ;
#203 = ORIENTED_EDGE ( 'NONE', *, *, #769, .F. ) ;
#204 = DIRECTION ( 'NONE',  ( 0.000000000000000000, 1.000000000000000000, -0.000000000000000000 ) ) ;
#205 = AXIS2_PLACEMENT_3D ( 'NONE', #278, #462, #274 ) ;
#206 = DIRECTION ( 'NONE',  ( 0.000000000000000000, 1.000000000000000000, -0.000000000000000000 ) ) ;
#207 = ORIENTED_EDGE ( 'NONE', *, *, #219, .T. ) ;
#208 = AXIS2_PLACEMENT_3D ( 'NONE', #328, #436, #259 ) ;
#209 = DIRECTION ( 'NONE',  ( 0.000000000000000000, 0.000000000000000000, -1.000000000000000000 ) ) ;
#210 = VECTOR ( 'NONE', #56, 1000.000000000000000 ) ;
#211 = EDGE_CURVE ( 'NONE', #128, #461, #513, .T. ) ;
#212 = DIRECTION ( 'NONE',  ( 0.000000000000000000, 1.000000000000000000, 0.000000000000000000 ) ) ;
#213 = PRODUCT_DEFINITION_SHAPE ( 'NONE', 'NONE',  #148 ) ;
#214 = ORIENTED_EDGE ( 'NONE', *, *, #578, .T. ) ;
#215 = MANIFOLD_SOLID_BREP ( 'Boss-Extrude2', #495 ) ;
#216 = CARTESIAN_POINT ( 'NONE',  ( 6.250000000000000000, 0.000000000000000000, 14.50000000000000000 ) ) ;
#217 = VERTEX_POINT ( 'NONE', #712 ) ;
#218 = DIRECTION ( 'NONE',  ( 1.000000000000000000, -0.000000000000000000, -0.000000000000000000 ) ) ;
#219 = EDGE_CURVE ( 'NONE', #667, #486, #277, .T. ) ;
#220 = LINE ( 'NONE', #723, #229 ) ;
#221 = ORIENTED_EDGE ( 'NONE', *, *, #202, .F. ) ;
#222 = DIRECTION ( 'NONE',  ( 0.000000000000000000, 1.000000000000000000, 0.000000000000000000 ) ) ;
#223 = LINE ( 'NONE', #785, #458 ) ;
#224 = CIRCLE ( 'NONE', #522, 0.4499999999999999001 ) ;
#225 = DIRECTION ( 'NONE',  ( 0.000000000000000000, 0.000000000000000000, 1.000000000000000000 ) ) ;
#226 = CIRCLE ( 'NONE', #796, 0.4500000000000007327 ) ;
#227 = VERTEX_POINT ( 'NONE', #450 ) ;
#228 = CARTESIAN_POINT ( 'NONE',  ( -3.749999999999998668, 0.000000000000000000, 3.040000000000000036 ) ) ;
#229 = VECTOR ( 'NONE', #400, 1000.000000000000000 ) ;
#230 = CARTESIAN_POINT ( 'NONE',  ( -3.749999999999998668, 0.000000000000000000, 3.040000000000000036 ) ) ;
#231 = EDGE_CURVE ( 'NONE', #486, #667, #52, .T. ) ;
#232 = VERTEX_POINT ( 'NONE', #388 ) ;
#233 = DIRECTION ( 'NONE',  ( 0.000000000000000000, -0.000000000000000000, 1.000000000000000000 ) ) ;
#234 = CARTESIAN_POINT ( 'NONE',  ( 3.749999999999999556, -3.799999999999999822, 3.039999999999999147 ) ) ;
#235 = EDGE_LOOP ( 'NONE', ( #311, #682, #168, #788 ) ) ;
#236 = DIRECTION ( 'NONE',  ( 0.000000000000000000, 0.000000000000000000, 1.000000000000000000 ) ) ;
#237 = DIRECTION ( 'NONE',  ( 0.000000000000000000, 0.000000000000000000, 1.000000000000000000 ) ) ;
#238 = AXIS2_PLACEMENT_3D ( 'NONE', #466, #3, #523 ) ;
#239 = DIRECTION ( 'NONE',  ( -1.000000000000000000, 0.000000000000000000, 0.000000000000000000 ) ) ;
#240 = EDGE_LOOP ( 'NONE', ( #524, #385 ) ) ;
#241 = AXIS2_PLACEMENT_3D ( 'NONE', #694, #308, #172 ) ;
#242 = CARTESIAN_POINT ( 'NONE',  ( 3.749999999999996003, -3.799999999999999822, -11.96000000000000085 ) ) ;
#243 = DIRECTION ( 'NONE',  ( 0.000000000000000000, 1.000000000000000000, 0.000000000000000000 ) ) ;
#244 = LINE ( 'NONE', #47, #394 ) ;
#245 = ORIENTED_EDGE ( 'NONE', *, *, #591, .F. ) ;
#246 = FACE_OUTER_BOUND ( 'NONE', #734, .T. ) ;
#247 = CIRCLE ( 'NONE', #709, 0.4500000000000007327 ) ;
#248 = EDGE_CURVE ( 'NONE', #322, #302, #18, .T. ) ;
#249 = ORIENTED_EDGE ( 'NONE', *, *, #465, .F. ) ;
#250 = CARTESIAN_POINT ( 'NONE',  ( 3.750000000000000444, -3.799999999999999822, 8.490000000000000213 ) ) ;
#251 = ORIENTED_EDGE ( 'NONE', *, *, #11, .T. ) ;
#252 = ORIENTED_EDGE ( 'NONE', *, *, #610, .F. ) ;
#253 = LINE ( 'NONE', #691, #470 ) ;
#254 = CARTESIAN_POINT ( 'NONE',  ( 6.250000000000000000, 15.69999999999999929, 14.50000000000000000 ) ) ;
#255 = ORIENTED_EDGE ( 'NONE', *, *, #231, .F. ) ;
#256 = PRESENTATION_STYLE_ASSIGNMENT (( #197 ) ) ;
#257 = CARTESIAN_POINT ( 'NONE',  ( -6.250000000000000000, 15.69999999999999929, 14.50000000000000000 ) ) ;
#258 = AXIS2_PLACEMENT_3D ( 'NONE', #324, #134, #269 ) ;
#259 = DIRECTION ( 'NONE',  ( 0.000000000000000000, 0.000000000000000000, -1.000000000000000000 ) ) ;
#260 = ADVANCED_FACE ( 'NONE', ( #823 ), #583, .F. ) ;
#261 = CARTESIAN_POINT ( 'NONE',  ( 3.749999999999999556, -3.799999999999999822, 3.490000000000000213 ) ) ;
#262 = FACE_OUTER_BOUND ( 'NONE', #326, .T. ) ;
#263 = ORIENTED_EDGE ( 'NONE', *, *, #480, .T. ) ;
#264 = PLANE ( 'NONE',  #41 ) ;
#265 = DIRECTION ( 'NONE',  ( 0.000000000000000000, 0.000000000000000000, -1.000000000000000000 ) ) ;
#266 = AXIS2_PLACEMENT_3D ( 'NONE', #644, #460, #529 ) ;
#267 = CARTESIAN_POINT ( 'NONE',  ( 3.749999999999996003, -3.799999999999999822, -11.96000000000000085 ) ) ;
#268 = ORIENTED_EDGE ( 'NONE', *, *, #20, .F. ) ;
#269 = DIRECTION ( 'NONE',  ( 0.000000000000000000, 0.000000000000000000, 1.000000000000000000 ) ) ;
#270 = CYLINDRICAL_SURFACE ( 'NONE', #705, 0.4500000000000007327 ) ;
#271 = EDGE_CURVE ( 'NONE', #413, #585, #348, .T. ) ;
#272 = LINE ( 'NONE', #791, #798 ) ;
#273 = APPLICATION_PROTOCOL_DEFINITION ( 'draft international standard', 'automotive_design', 1998, #786 ) ;
#274 = DIRECTION ( 'NONE',  ( 0.000000000000000000, 0.000000000000000000, 1.000000000000000000 ) ) ;
#275 = VECTOR ( 'NONE', #309, 1000.000000000000000 ) ;
#276 = ORIENTED_EDGE ( 'NONE', *, *, #542, .T. ) ;
#277 = CIRCLE ( 'NONE', #765, 0.4500000000000007327 ) ;
#278 = CARTESIAN_POINT ( 'NONE',  ( -3.749999999999998668, -3.799999999999999822, 13.03999999999999737 ) ) ;
#279 = CIRCLE ( 'NONE', #88, 0.4500000000000007327 ) ;
#280 = ADVANCED_FACE ( 'NONE', ( #728 ), #154, .T. ) ;
#281 = VERTEX_POINT ( 'NONE', #474 ) ;
#282 = CARTESIAN_POINT ( 'NONE',  ( 3.750000000000000444, 0.000000000000000000, 8.040000000000000924 ) ) ;
#283 = FACE_BOUND ( 'NONE', #627, .T. ) ;
#284 = VECTOR ( 'NONE', #432, 1000.000000000000000 ) ;
#285 = ADVANCED_BREP_SHAPE_REPRESENTATION ( 'Finder_41.52', ( #215, #333 ), #476 ) ;
#286 = ORIENTED_EDGE ( 'NONE', *, *, #555, .T. ) ;
#287 = EDGE_CURVE ( 'NONE', #630, #615, #220, .T. ) ;
#288 = CARTESIAN_POINT ( 'NONE',  ( -3.749999999999998668, 0.000000000000000000, 2.590000000000000302 ) ) ;
#289 = FACE_BOUND ( 'NONE', #536, .T. ) ;
#290 = ORIENTED_EDGE ( 'NONE', *, *, #198, .F. ) ;
#291 = ORIENTED_EDGE ( 'NONE', *, *, #753, .F. ) ;
#292 = AXIS2_PLACEMENT_3D ( 'NONE', #517, #587, #86 ) ;
#293 = VERTEX_POINT ( 'NONE', #351 ) ;
#294 = FACE_OUTER_BOUND ( 'NONE', #352, .T. ) ;
#295 = CARTESIAN_POINT ( 'NONE',  ( 3.750000000000002220, -3.799999999999999822, 13.03999999999999737 ) ) ;
#296 = EDGE_CURVE ( 'NONE', #433, #778, #338, .T. ) ;
#297 = DIRECTION ( 'NONE',  ( 1.000000000000000000, 0.000000000000000000, -0.000000000000000000 ) ) ;
#298 = EDGE_LOOP ( 'NONE', ( #40, #477, #520, #349 ) ) ;
#299 = DIRECTION ( 'NONE',  ( 0.000000000000000000, 1.000000000000000000, -0.000000000000000000 ) ) ;
#300 = LINE ( 'NONE', #567, #98 ) ;
#301 = DIRECTION ( 'NONE',  ( 0.000000000000000000, 1.000000000000000000, 0.000000000000000000 ) ) ;
#302 = VERTEX_POINT ( 'NONE', #720 ) ;
#303 = CARTESIAN_POINT ( 'NONE',  ( -3.749999999999998668, -3.799999999999999822, 8.040000000000000924 ) ) ;
#304 = LINE ( 'NONE', #767, #642 ) ;
#305 = FACE_OUTER_BOUND ( 'NONE', #758, .T. ) ;
#306 = ORIENTED_EDGE ( 'NONE', *, *, #77, .T. ) ;
#307 = EDGE_CURVE ( 'NONE', #227, #615, #272, .T. ) ;
#308 = DIRECTION ( 'NONE',  ( 0.000000000000000000, 1.000000000000000000, 0.000000000000000000 ) ) ;
#309 = DIRECTION ( 'NONE',  ( 0.000000000000000000, 1.000000000000000000, 0.000000000000000000 ) ) ;
#310 = FACE_OUTER_BOUND ( 'NONE', #503, .T. ) ;
#311 = ORIENTED_EDGE ( 'NONE', *, *, #731, .T. ) ;
#312 = LINE ( 'NONE', #821, #48 ) ;
#313 = FACE_OUTER_BOUND ( 'NONE', #506, .T. ) ;
#314 = DIRECTION ( 'NONE',  ( 0.000000000000000000, 0.000000000000000000, -1.000000000000000000 ) ) ;
#315 = ORIENTED_EDGE ( 'NONE', *, *, #307, .T. ) ;
#316 = CIRCLE ( 'NONE', #21, 0.4500000000000007327 ) ;
#317 = CARTESIAN_POINT ( 'NONE',  ( -3.749999999999998668, -3.799999999999999822, 13.03999999999999737 ) ) ;
#318 = CARTESIAN_POINT ( 'NONE',  ( -3.749999999999998668, -3.799999999999999822, 12.58999999999999631 ) ) ;
#319 = ORIENTED_EDGE ( 'NONE', *, *, #727, .T. ) ;
#320 = SHAPE_DEFINITION_REPRESENTATION ( #213, #285 ) ;
#321 = VECTOR ( 'NONE', #218, 1000.000000000000000 ) ;
#322 = VERTEX_POINT ( 'NONE', #787 ) ;
#323 = DIRECTION ( 'NONE',  ( 0.000000000000000000, 1.000000000000000000, 0.000000000000000000 ) ) ;
#324 = CARTESIAN_POINT ( 'NONE',  ( -3.749999999999998668, 0.000000000000000000, -11.96000000000000085 ) ) ;
#325 = DIRECTION ( 'NONE',  ( 0.000000000000000000, 0.000000000000000000, -1.000000000000000000 ) ) ;
#326 = EDGE_LOOP ( 'NONE', ( #771, #150, #214, #167 ) ) ;
#327 = AXIS2_PLACEMENT_3D ( 'NONE', #564, #606, #363 ) ;
#328 = CARTESIAN_POINT ( 'NONE',  ( 3.750000000000002220, -3.799999999999999822, 13.03999999999999737 ) ) ;
#329 = CARTESIAN_POINT ( 'NONE',  ( 3.749999999999996003, 0.000000000000000000, -11.96000000000000085 ) ) ;
#330 =( NAMED_UNIT ( * ) SI_UNIT ( $, .STERADIAN. ) SOLID_ANGLE_UNIT ( ) );
#331 = EDGE_LOOP ( 'NONE', ( #263, #612, #760, #819 ) ) ;
#332 = LINE ( 'NONE', #318, #806 ) ;
#333 = AXIS2_PLACEMENT_3D ( 'NONE', #451, #87, #704 ) ;
#334 = EDGE_CURVE ( 'NONE', #136, #750, #22, .T. ) ;
#335 = EDGE_CURVE ( 'NONE', #750, #461, #279, .T. ) ;
#336 = CIRCLE ( 'NONE', #15, 0.4499999999999999001 ) ;
#337 = FACE_BOUND ( 'NONE', #36, .T. ) ;
#338 = CIRCLE ( 'NONE', #693, 0.4500000000000007327 ) ;
#339 = CYLINDRICAL_SURFACE ( 'NONE', #586, 0.4500000000000007327 ) ;
#340 = AXIS2_PLACEMENT_3D ( 'NONE', #395, #141, #390 ) ;
#341 = DIRECTION ( 'NONE',  ( 0.000000000000000000, 1.000000000000000000, 0.000000000000000000 ) ) ;
#342 = EDGE_CURVE ( 'NONE', #489, #601, #648, .T. ) ;
#343 = ORIENTED_EDGE ( 'NONE', *, *, #657, .T. ) ;
#344 = CIRCLE ( 'NONE', #138, 0.4500000000000007327 ) ;
#345 = DIRECTION ( 'NONE',  ( 0.000000000000000000, 0.000000000000000000, 1.000000000000000000 ) ) ;
#346 = AXIS2_PLACEMENT_3D ( 'NONE', #790, #662, #797 ) ;
#347 = ADVANCED_FACE ( 'NONE', ( #28, #31, #289, #283, #794, #717, #85, #337, #310 ), #739, .F. ) ;
#348 = CIRCLE ( 'NONE', #205, 0.4500000000000007327 ) ;
#349 = ORIENTED_EDGE ( 'NONE', *, *, #479, .F. ) ;
#350 = CARTESIAN_POINT ( 'NONE',  ( 6.250000000000000000, 15.69999999999999929, -14.50000000000000000 ) ) ;
#351 = CARTESIAN_POINT ( 'NONE',  ( 3.750000000000002220, 0.000000000000000000, 13.48999999999999844 ) ) ;
#352 = EDGE_LOOP ( 'NONE', ( #32, #371 ) ) ;
#353 = PLANE ( 'NONE',  #650 ) ;
#354 = CARTESIAN_POINT ( 'NONE',  ( -3.749999999999998668, -3.799999999999999822, 7.590000000000000746 ) ) ;
#355 = EDGE_LOOP ( 'NONE', ( #552, #268, #629, #733 ) ) ;
#356 = ORIENTED_EDGE ( 'NONE', *, *, #187, .T. ) ;
#357 = FACE_OUTER_BOUND ( 'NONE', #179, .T. ) ;
#358 = ADVANCED_FACE ( 'NONE', ( #481 ), #418, .F. ) ;
#359 = EDGE_CURVE ( 'NONE', #89, #687, #749, .T. ) ;
#360 = DIRECTION ( 'NONE',  ( 0.000000000000000000, 0.000000000000000000, 1.000000000000000000 ) ) ;
#361 = AXIS2_PLACEMENT_3D ( 'NONE', #643, #571, #2 ) ;
#362 = ORIENTED_EDGE ( 'NONE', *, *, #658, .F. ) ;
#363 = DIRECTION ( 'NONE',  ( 0.000000000000000000, 0.000000000000000000, -1.000000000000000000 ) ) ;
#364 = VECTOR ( 'NONE', #502, 1000.000000000000000 ) ;
#365 = VERTEX_POINT ( 'NONE', #110 ) ;
#366 = DIRECTION ( 'NONE',  ( 0.000000000000000000, 1.000000000000000000, 0.000000000000000000 ) ) ;
#367 = DIRECTION ( 'NONE',  ( 0.000000000000000000, 0.000000000000000000, 1.000000000000000000 ) ) ;
#368 = EDGE_CURVE ( 'NONE', #302, #322, #680, .T. ) ;
#369 = VERTEX_POINT ( 'NONE', #808 ) ;
#370 = CARTESIAN_POINT ( 'NONE',  ( 3.749999999999996003, 0.000000000000000000, -11.50999999999999979 ) ) ;
#371 = ORIENTED_EDGE ( 'NONE', *, *, #799, .F. ) ;
#372 = CYLINDRICAL_SURFACE ( 'NONE', #670, 0.4500000000000007327 ) ;
#373 = ORIENTED_EDGE ( 'NONE', *, *, #578, .F. ) ;
#374 = AXIS2_PLACEMENT_3D ( 'NONE', #317, #42, #233 ) ;
#375 = LINE ( 'NONE', #626, #743 ) ;
#376 = ORIENTED_EDGE ( 'NONE', *, *, #287, .F. ) ;
#377 = CARTESIAN_POINT ( 'NONE',  ( -3.749999999999998668, 0.000000000000000000, -11.50999999999999979 ) ) ;
#378 = ORIENTED_EDGE ( 'NONE', *, *, #584, .F. ) ;
#379 = DIRECTION ( 'NONE',  ( 0.000000000000000000, 1.000000000000000000, 0.000000000000000000 ) ) ;
#380 = ADVANCED_FACE ( 'NONE', ( #672 ), #814, .T. ) ;
#381 = ORIENTED_EDGE ( 'NONE', *, *, #700, .T. ) ;
#382 = CARTESIAN_POINT ( 'NONE',  ( -3.749999999999998668, -3.799999999999999822, 2.590000000000000302 ) ) ;
#383 = ORIENTED_EDGE ( 'NONE', *, *, #727, .F. ) ;
#384 = CARTESIAN_POINT ( 'NONE',  ( 3.750000000000002220, -3.799999999999999822, 13.03999999999999737 ) ) ;
#385 = ORIENTED_EDGE ( 'NONE', *, *, #77, .F. ) ;
#386 = FACE_OUTER_BOUND ( 'NONE', #117, .T. ) ;
#387 = AXIS2_PLACEMENT_3D ( 'NONE', #518, #773, #412 ) ;
#388 = CARTESIAN_POINT ( 'NONE',  ( 3.749999999999996003, -3.799999999999999822, -12.41000000000000014 ) ) ;
#389 = ORIENTED_EDGE ( 'NONE', *, *, #719, .F. ) ;
#390 = DIRECTION ( 'NONE',  ( 0.000000000000000000, 0.000000000000000000, -1.000000000000000000 ) ) ;
#391 = CARTESIAN_POINT ( 'NONE',  ( -3.749999999999998668, -3.799999999999999822, -11.96000000000000085 ) ) ;
#392 = CYLINDRICAL_SURFACE ( 'NONE', #266, 0.4499999999999999001 ) ;
#393 = ORIENTED_EDGE ( 'NONE', *, *, #519, .F. ) ;
#394 = VECTOR ( 'NONE', #35, 1000.000000000000000 ) ;
#395 = CARTESIAN_POINT ( 'NONE',  ( 3.750000000000002220, 0.000000000000000000, 13.03999999999999737 ) ) ;
#396 = EDGE_CURVE ( 'NONE', #369, #93, #681, .T. ) ;
#397 = ADVANCED_FACE ( 'NONE', ( #494 ), #166, .F. ) ;
#398 = CARTESIAN_POINT ( 'NONE',  ( 3.750000000000000444, -3.799999999999999822, 8.040000000000000924 ) ) ;
#399 = ORIENTED_EDGE ( 'NONE', *, *, #405, .T. ) ;
#400 = DIRECTION ( 'NONE',  ( -0.000000000000000000, -1.000000000000000000, -0.000000000000000000 ) ) ;
#401 = CIRCLE ( 'NONE', #387, 0.4500000000000007327 ) ;
#402 = VECTOR ( 'NONE', #770, 1000.000000000000000 ) ;
#403 = CARTESIAN_POINT ( 'NONE',  ( 3.749999999999996003, -3.799999999999999822, -11.96000000000000085 ) ) ;
#404 = LINE ( 'NONE', #467, #478 ) ;
#405 = EDGE_CURVE ( 'NONE', #429, #433, #182, .T. ) ;
#406 = CARTESIAN_POINT ( 'NONE',  ( -3.749999999999998668, -3.799999999999999822, 8.040000000000000924 ) ) ;
#407 = PRODUCT_RELATED_PRODUCT_CATEGORY ( 'part', '', ( #804 ) ) ;
#408 = DIRECTION ( 'NONE',  ( 0.000000000000000000, 1.000000000000000000, 0.000000000000000000 ) ) ;
#409 = ORIENTED_EDGE ( 'NONE', *, *, #700, .F. ) ;
#410 = DIRECTION ( 'NONE',  ( 0.000000000000000000, 1.000000000000000000, 0.000000000000000000 ) ) ;
#411 = CARTESIAN_POINT ( 'NONE',  ( -3.749999999999998668, -3.799999999999999822, -12.41000000000000014 ) ) ;
#412 = DIRECTION ( 'NONE',  ( 0.000000000000000000, 0.000000000000000000, 1.000000000000000000 ) ) ;
#413 = VERTEX_POINT ( 'NONE', #748 ) ;
#414 = DIRECTION ( 'NONE',  ( 0.000000000000000000, 0.000000000000000000, 1.000000000000000000 ) ) ;
#415 = EDGE_CURVE ( 'NONE', #489, #369, #244, .T. ) ;
#416 = EDGE_LOOP ( 'NONE', ( #817, #633 ) ) ;
#417 = ORIENTED_EDGE ( 'NONE', *, *, #624, .T. ) ;
#418 = PLANE ( 'NONE',  #640 ) ;
#419 = ORIENTED_EDGE ( 'NONE', *, *, #725, .T. ) ;
#420 = CYLINDRICAL_SURFACE ( 'NONE', #124, 0.4500000000000007327 ) ;
#421 = DIRECTION ( 'NONE',  ( 0.000000000000000000, 1.000000000000000000, 0.000000000000000000 ) ) ;
#422 = AXIS2_PLACEMENT_3D ( 'NONE', #683, #299, #616 ) ;
#423 = ORIENTED_EDGE ( 'NONE', *, *, #334, .F. ) ;
#424 = DIRECTION ( 'NONE',  ( 0.000000000000000000, 1.000000000000000000, 0.000000000000000000 ) ) ;
#425 = CARTESIAN_POINT ( 'NONE',  ( -3.749999999999998668, 0.000000000000000000, 3.490000000000000213 ) ) ;
#426 = ADVANCED_FACE ( 'NONE', ( #428 ), #550, .T. ) ;
#427 = ADVANCED_FACE ( 'NONE', ( #305 ), #742, .T. ) ;
#428 = FACE_OUTER_BOUND ( 'NONE', #101, .T. ) ;
#429 = VERTEX_POINT ( 'NONE', #354 ) ;
#430 = FACE_OUTER_BOUND ( 'NONE', #496, .T. ) ;
#431 = ADVANCED_FACE ( 'NONE', ( #121 ), #372, .T. ) ;
#432 = DIRECTION ( 'NONE',  ( 0.000000000000000000, 1.000000000000000000, 0.000000000000000000 ) ) ;
#433 = VERTEX_POINT ( 'NONE', #628 ) ;
#434 = DIRECTION ( 'NONE',  ( 0.000000000000000000, 1.000000000000000000, -0.000000000000000000 ) ) ;
#435 = PRODUCT_DEFINITION_FORMATION_WITH_SPECIFIED_SOURCE ( 'ANY', '', #804, .NOT_KNOWN. ) ;
#436 = DIRECTION ( 'NONE',  ( 0.000000000000000000, 1.000000000000000000, -0.000000000000000000 ) ) ;
#437 = ORIENTED_EDGE ( 'NONE', *, *, #271, .F. ) ;
#438 = AXIS2_PLACEMENT_3D ( 'NONE', #391, #81, #708 ) ;
#439 = DIRECTION ( 'NONE',  ( 0.000000000000000000, 1.000000000000000000, 0.000000000000000000 ) ) ;
#440 = CARTESIAN_POINT ( 'NONE',  ( -3.749999999999998668, -3.799999999999999822, 3.040000000000000036 ) ) ;
#441 = VECTOR ( 'NONE', #530, 1000.000000000000000 ) ;
#442 = ORIENTED_EDGE ( 'NONE', *, *, #810, .F. ) ;
#443 = CARTESIAN_POINT ( 'NONE',  ( -6.250000000000000000, 15.69999999999999929, -14.50000000000000000 ) ) ;
#444 = ORIENTED_EDGE ( 'NONE', *, *, #769, .T. ) ;
#445 = EDGE_CURVE ( 'NONE', #623, #232, #316, .T. ) ;
#446 = FACE_OUTER_BOUND ( 'NONE', #173, .T. ) ;
#447 = DIRECTION ( 'NONE',  ( 0.000000000000000000, 0.000000000000000000, -1.000000000000000000 ) ) ;
#448 = ORIENTED_EDGE ( 'NONE', *, *, #508, .T. ) ;
#449 = CARTESIAN_POINT ( 'NONE',  ( 3.750000000000002220, 0.000000000000000000, 12.58999999999999631 ) ) ;
#450 = CARTESIAN_POINT ( 'NONE',  ( -6.250000000000000000, 0.000000000000000000, -14.50000000000000000 ) ) ;
#451 = CARTESIAN_POINT ( 'NONE',  ( 0.000000000000000000, 0.000000000000000000, 0.000000000000000000 ) ) ;
#452 = VERTEX_POINT ( 'NONE', #250 ) ;
#453 = CARTESIAN_POINT ( 'NONE',  ( 6.250000000000000000, 15.69999999999999929, 14.50000000000000000 ) ) ;
#454 = CIRCLE ( 'NONE', #608, 0.4500000000000007327 ) ;
#455 = FACE_OUTER_BOUND ( 'NONE', #533, .T. ) ;
#456 = ADVANCED_FACE ( 'NONE', ( #200 ), #457, .T. ) ;
#457 = PLANE ( 'NONE',  #170 ) ;
#458 = VECTOR ( 'NONE', #738, 1000.000000000000000 ) ;
#459 = SURFACE_STYLE_FILL_AREA ( #580 ) ;
#460 = DIRECTION ( 'NONE',  ( 0.000000000000000000, 1.000000000000000000, 0.000000000000000000 ) ) ;
#461 = VERTEX_POINT ( 'NONE', #377 ) ;
#462 = DIRECTION ( 'NONE',  ( 0.000000000000000000, 1.000000000000000000, 0.000000000000000000 ) ) ;
#463 = SURFACE_SIDE_STYLE ('',( #459 ) ) ;
#464 = CARTESIAN_POINT ( 'NONE',  ( 3.749999999999999556, -3.799999999999999822, 3.039999999999999147 ) ) ;
#465 = EDGE_CURVE ( 'NONE', #217, #89, #711, .T. ) ;
#466 = CARTESIAN_POINT ( 'NONE',  ( 3.750000000000002220, -3.799999999999999822, 13.03999999999999737 ) ) ;
#467 = CARTESIAN_POINT ( 'NONE',  ( 3.749999999999996003, -3.799999999999999822, -12.41000000000000014 ) ) ;
#468 = CIRCLE ( 'NONE', #108, 0.4500000000000007327 ) ;
#469 = CARTESIAN_POINT ( 'NONE',  ( -3.749999999999998668, -3.799999999999999822, 3.040000000000000036 ) ) ;
#470 = VECTOR ( 'NONE', #818, 1000.000000000000000 ) ;
#471 = DIRECTION ( 'NONE',  ( 0.000000000000000000, 0.000000000000000000, 1.000000000000000000 ) ) ;
#472 = ORIENTED_EDGE ( 'NONE', *, *, #62, .F. ) ;
#473 = DIRECTION ( 'NONE',  ( 0.000000000000000000, 0.000000000000000000, 1.000000000000000000 ) ) ;
#474 = CARTESIAN_POINT ( 'NONE',  ( 3.749999999999999556, -3.799999999999999822, 3.490000000000000213 ) ) ;
#475 = ORIENTED_EDGE ( 'NONE', *, *, #368, .F. ) ;
#476 =( GEOMETRIC_REPRESENTATION_CONTEXT ( 3 ) GLOBAL_UNCERTAINTY_ASSIGNED_CONTEXT ( ( #484 ) ) GLOBAL_UNIT_ASSIGNED_CONTEXT ( ( #82, #78, #330 ) ) REPRESENTATION_CONTEXT ( 'NONE', 'WORKASPACE' ) );
#477 = ORIENTED_EDGE ( 'NONE', *, *, #810, .T. ) ;
#478 = VECTOR ( 'NONE', #724, 1000.000000000000000 ) ;
#479 = EDGE_CURVE ( 'NONE', #539, #293, #781, .T. ) ;
#480 = EDGE_CURVE ( 'NONE', #509, #227, #71, .T. ) ;
#481 = FACE_OUTER_BOUND ( 'NONE', #331, .T. ) ;
#482 = EDGE_LOOP ( 'NONE', ( #801, #399, #29, #378 ) ) ;
#483 = CARTESIAN_POINT ( 'NONE',  ( 3.750000000000002220, -3.799999999999999822, 12.58999999999999631 ) ) ;
#484 = UNCERTAINTY_MEASURE_WITH_UNIT (LENGTH_MEASURE( 1.000000000000000082E-05 ), #82, 'distance_accuracy_value', 'NONE');
#485 = DIRECTION ( 'NONE',  ( 0.000000000000000000, 1.000000000000000000, 0.000000000000000000 ) ) ;
#486 = VERTEX_POINT ( 'NONE', #192 ) ;
#487 = PLANE ( 'NONE',  #241 ) ;
#488 = CARTESIAN_POINT ( 'NONE',  ( 6.250000000000000000, 0.000000000000000000, 14.50000000000000000 ) ) ;
#489 = VERTEX_POINT ( 'NONE', #453 ) ;
#490 = APPLICATION_CONTEXT ( 'automotive_design' ) ;
#491 = ADVANCED_FACE ( 'NONE', ( #313 ), #264, .F. ) ;
#492 = CARTESIAN_POINT ( 'NONE',  ( -3.749999999999998668, -3.799999999999999822, -12.41000000000000014 ) ) ;
#493 = DIRECTION ( 'NONE',  ( 0.000000000000000000, 1.000000000000000000, 0.000000000000000000 ) ) ;
#494 = FACE_OUTER_BOUND ( 'NONE', #240, .T. ) ;
#495 = CLOSED_SHELL ( 'NONE', ( #91, #780, #380, #280, #130, #779, #637, #102, #186, #499, #260, #358, #129, #347, #100, #109, #763, #600, #431, #541, #752, #427, #740, #456, #651, #491, #706, #34, #426, #397 ) ) ;
#496 = EDGE_LOOP ( 'NONE', ( #423, #669, #171, #106 ) ) ;
#497 = AXIS2_PLACEMENT_3D ( 'NONE', #16, #57, #314 ) ;
#498 = CYLINDRICAL_SURFACE ( 'NONE', #66, 0.4499999999999999001 ) ;
#499 = ADVANCED_FACE ( 'NONE', ( #569 ), #196, .F. ) ;
#500 = ORIENTED_EDGE ( 'NONE', *, *, #248, .F. ) ;
#501 = LINE ( 'NONE', #553, #531 ) ;
#502 = DIRECTION ( 'NONE',  ( -1.000000000000000000, 0.000000000000000000, 0.000000000000000000 ) ) ;
#503 = EDGE_LOOP ( 'NONE', ( #125, #824, #252, #815 ) ) ;
#504 = FACE_OUTER_BOUND ( 'NONE', #764, .T. ) ;
#505 = CARTESIAN_POINT ( 'NONE',  ( -3.749999999999998668, -3.799999999999999822, 13.03999999999999737 ) ) ;
#506 = EDGE_LOOP ( 'NONE', ( #291, #561 ) ) ;
#507 = DIRECTION ( 'NONE',  ( 0.000000000000000000, 0.000000000000000000, 1.000000000000000000 ) ) ;
#508 = EDGE_CURVE ( 'NONE', #452, #302, #253, .T. ) ;
#509 = VERTEX_POINT ( 'NONE', #64 ) ;
#510 = PRESENTATION_LAYER_ASSIGNMENT (  '', '', ( #37 ) ) ;
#511 = CARTESIAN_POINT ( 'NONE',  ( 3.749999999999999556, 0.000000000000000000, 3.039999999999999147 ) ) ;
#512 = CARTESIAN_POINT ( 'NONE',  ( 3.750000000000000444, -3.799999999999999822, 7.589999999999999858 ) ) ;
#513 = LINE ( 'NONE', #825, #402 ) ;
#514 = DIRECTION ( 'NONE',  ( 0.000000000000000000, 0.000000000000000000, 1.000000000000000000 ) ) ;
#515 = ORIENTED_EDGE ( 'NONE', *, *, #508, .F. ) ;
#516 = CARTESIAN_POINT ( 'NONE',  ( 3.749999999999996003, -3.799999999999999822, -11.96000000000000085 ) ) ;
#517 = CARTESIAN_POINT ( 'NONE',  ( -3.749999999999998668, 0.000000000000000000, 8.040000000000000924 ) ) ;
#518 = CARTESIAN_POINT ( 'NONE',  ( -3.749999999999998668, -3.799999999999999822, -11.96000000000000085 ) ) ;
#519 = EDGE_CURVE ( 'NONE', #293, #539, #112, .T. ) ;
#520 = ORIENTED_EDGE ( 'NONE', *, *, #591, .T. ) ;
#521 = DIRECTION ( 'NONE',  ( 0.000000000000000000, 1.000000000000000000, -0.000000000000000000 ) ) ;
#522 = AXIS2_PLACEMENT_3D ( 'NONE', #714, #782, #581 ) ;
#523 = DIRECTION ( 'NONE',  ( 0.000000000000000000, 0.000000000000000000, 1.000000000000000000 ) ) ;
#524 = ORIENTED_EDGE ( 'NONE', *, *, #139, .F. ) ;
#525 =( NAMED_UNIT ( * ) PLANE_ANGLE_UNIT ( ) SI_UNIT ( $, .RADIAN. ) );
#526 = DIRECTION ( 'NONE',  ( 0.000000000000000000, 0.000000000000000000, 1.000000000000000000 ) ) ;
#527 = CIRCLE ( 'NONE', #208, 0.4500000000000007327 ) ;
#528 = DIRECTION ( 'NONE',  ( -1.000000000000000000, 0.000000000000000000, 0.000000000000000000 ) ) ;
#529 = DIRECTION ( 'NONE',  ( 0.000000000000000000, 0.000000000000000000, 1.000000000000000000 ) ) ;
#530 = DIRECTION ( 'NONE',  ( 0.000000000000000000, 1.000000000000000000, 0.000000000000000000 ) ) ;
#531 = VECTOR ( 'NONE', #243, 1000.000000000000000 ) ;
#532 = EDGE_CURVE ( 'NONE', #93, #227, #757, .T. ) ;
#533 = EDGE_LOOP ( 'NONE', ( #692, #671, #475, #515 ) ) ;
#534 =( GEOMETRIC_REPRESENTATION_CONTEXT ( 3 ) GLOBAL_UNCERTAINTY_ASSIGNED_CONTEXT ( ( #559 ) ) GLOBAL_UNIT_ASSIGNED_CONTEXT ( ( #703, #525, #1 ) ) REPRESENTATION_CONTEXT ( 'NONE', 'WORKASPACE' ) );
#535 = DIRECTION ( 'NONE',  ( 0.000000000000000000, 0.000000000000000000, 1.000000000000000000 ) ) ;
#536 = EDGE_LOOP ( 'NONE', ( #563, #544 ) ) ;
#537 = DIRECTION ( 'NONE',  ( 0.000000000000000000, 1.000000000000000000, -0.000000000000000000 ) ) ;
#538 = VECTOR ( 'NONE', #239, 1000.000000000000000 ) ;
#539 = VERTEX_POINT ( 'NONE', #449 ) ;
#540 = CARTESIAN_POINT ( 'NONE',  ( -3.749999999999998668, 0.000000000000000000, 13.48999999999999844 ) ) ;
#541 = ADVANCED_FACE ( 'NONE', ( #386 ), #646, .T. ) ;
#542 = EDGE_CURVE ( 'NONE', #603, #69, #527, .T. ) ;
#543 = DIRECTION ( 'NONE',  ( 0.000000000000000000, 1.000000000000000000, 0.000000000000000000 ) ) ;
#544 = ORIENTED_EDGE ( 'NONE', *, *, #335, .T. ) ;
#545 = DIRECTION ( 'NONE',  ( -0.000000000000000000, -1.000000000000000000, -0.000000000000000000 ) ) ;
#546 = AXIS2_PLACEMENT_3D ( 'NONE', #713, #194, #209 ) ;
#547 = DIRECTION ( 'NONE',  ( 0.000000000000000000, -0.000000000000000000, 1.000000000000000000 ) ) ;
#548 = ORIENTED_EDGE ( 'NONE', *, *, #287, .T. ) ;
#549 = ORIENTED_EDGE ( 'NONE', *, *, #799, .T. ) ;
#550 = CYLINDRICAL_SURFACE ( 'NONE', #568, 0.4500000000000007327 ) ;
#551 = EDGE_CURVE ( 'NONE', #413, #365, #332, .T. ) ;
#552 = ORIENTED_EDGE ( 'NONE', *, *, #610, .T. ) ;
#553 = CARTESIAN_POINT ( 'NONE',  ( 3.749999999999999556, -3.799999999999999822, 2.589999999999998526 ) ) ;
#554 = DIRECTION ( 'NONE',  ( 0.000000000000000000, -0.000000000000000000, 1.000000000000000000 ) ) ;
#555 = EDGE_CURVE ( 'NONE', #69, #539, #132, .T. ) ;
#556 = VERTEX_POINT ( 'NONE', #512 ) ;
#557 = CARTESIAN_POINT ( 'NONE',  ( -3.749999999999998668, -3.799999999999999822, -11.96000000000000085 ) ) ;
#558 = CIRCLE ( 'NONE', #635, 0.4499999999999999001 ) ;
#559 = UNCERTAINTY_MEASURE_WITH_UNIT (LENGTH_MEASURE( 1.000000000000000082E-05 ), #703, 'distance_accuracy_value', 'NONE');
#560 = CARTESIAN_POINT ( 'NONE',  ( 6.250000000000000000, 15.69999999999999929, -14.50000000000000000 ) ) ;
#561 = ORIENTED_EDGE ( 'NONE', *, *, #162, .F. ) ;
#562 = CARTESIAN_POINT ( 'NONE',  ( -3.749999999999998668, -3.799999999999999822, 8.490000000000000213 ) ) ;
#563 = ORIENTED_EDGE ( 'NONE', *, *, #198, .T. ) ;
#564 = CARTESIAN_POINT ( 'NONE',  ( 3.750000000000000444, 0.000000000000000000, 8.040000000000000924 ) ) ;
#565 = ORIENTED_EDGE ( 'NONE', *, *, #624, .F. ) ;
#566 = DIRECTION ( 'NONE',  ( 0.000000000000000000, 1.000000000000000000, 0.000000000000000000 ) ) ;
#567 = CARTESIAN_POINT ( 'NONE',  ( 6.250000000000000000, 0.000000000000000000, 14.50000000000000000 ) ) ;
#568 = AXIS2_PLACEMENT_3D ( 'NONE', #754, #685, #367 ) ;
#569 = FACE_OUTER_BOUND ( 'NONE', #621, .T. ) ;
#570 = EDGE_LOOP ( 'NONE', ( #636, #698, #290, #696 ) ) ;
#571 = DIRECTION ( 'NONE',  ( 0.000000000000000000, 1.000000000000000000, -0.000000000000000000 ) ) ;
#572 = CYLINDRICAL_SURFACE ( 'NONE', #647, 0.4500000000000007327 ) ;
#573 = DIRECTION ( 'NONE',  ( 0.000000000000000000, 1.000000000000000000, 0.000000000000000000 ) ) ;
#574 = EDGE_LOOP ( 'NONE', ( #472, #599, #744, #255 ) ) ;
#575 = AXIS2_PLACEMENT_3D ( 'NONE', #655, #155, #345 ) ;
#576 = DIRECTION ( 'NONE',  ( 0.000000000000000000, 1.000000000000000000, 0.000000000000000000 ) ) ;
#577 = CARTESIAN_POINT ( 'NONE',  ( 3.750000000000000444, -3.799999999999999822, 8.040000000000000924 ) ) ;
#578 = EDGE_CURVE ( 'NONE', #281, #75, #827, .T. ) ;
#579 = AXIS2_PLACEMENT_3D ( 'NONE', #230, #301, #225 ) ;
#580 = FILL_AREA_STYLE ('',( #9 ) ) ;
#581 = DIRECTION ( 'NONE',  ( 0.000000000000000000, 0.000000000000000000, 1.000000000000000000 ) ) ;
#582 = DIRECTION ( 'NONE',  ( 0.000000000000000000, 1.000000000000000000, 0.000000000000000000 ) ) ;
#583 = PLANE ( 'NONE',  #127 ) ;
#584 = EDGE_CURVE ( 'NONE', #677, #778, #8, .T. ) ;
#585 = VERTEX_POINT ( 'NONE', #605 ) ;
#586 = AXIS2_PLACEMENT_3D ( 'NONE', #267, #74, #145 ) ;
#587 = DIRECTION ( 'NONE',  ( 0.000000000000000000, 1.000000000000000000, 0.000000000000000000 ) ) ;
#588 = CYLINDRICAL_SURFACE ( 'NONE', #238, 0.4500000000000007327 ) ;
#589 = CIRCLE ( 'NONE', #813, 0.4500000000000007327 ) ;
#590 = CARTESIAN_POINT ( 'NONE',  ( 3.750000000000002220, -3.799999999999999822, 13.03999999999999737 ) ) ;
#591 = EDGE_CURVE ( 'NONE', #603, #293, #223, .T. ) ;
#592 = CARTESIAN_POINT ( 'NONE',  ( -6.250000000000000000, 15.69999999999999929, -14.50000000000000000 ) ) ;
#593 = AXIS2_PLACEMENT_3D ( 'NONE', #557, #366, #237 ) ;
#594 = ORIENTED_EDGE ( 'NONE', *, *, #405, .F. ) ;
#595 = FACE_OUTER_BOUND ( 'NONE', #199, .T. ) ;
#596 = CIRCLE ( 'NONE', #422, 0.4500000000000007327 ) ;
#597 = AXIS2_PLACEMENT_3D ( 'NONE', #403, #543, #535 ) ;
#598 = DIRECTION ( 'NONE',  ( -0.000000000000000000, -1.000000000000000000, -0.000000000000000000 ) ) ;
#599 = ORIENTED_EDGE ( 'NONE', *, *, #142, .T. ) ;
#600 = ADVANCED_FACE ( 'NONE', ( #357 ), #656, .T. ) ;
#601 = VERTEX_POINT ( 'NONE', #488 ) ;
#602 = DIRECTION ( 'NONE',  ( 0.000000000000000000, 0.000000000000000000, 1.000000000000000000 ) ) ;
#603 = VERTEX_POINT ( 'NONE', #43 ) ;
#604 = ORIENTED_EDGE ( 'NONE', *, *, #11, .F. ) ;
#605 = CARTESIAN_POINT ( 'NONE',  ( -3.749999999999998668, -3.799999999999999822, 13.48999999999999844 ) ) ;
#606 = DIRECTION ( 'NONE',  ( 0.000000000000000000, 1.000000000000000000, -0.000000000000000000 ) ) ;
#607 = ORIENTED_EDGE ( 'NONE', *, *, #296, .T. ) ;
#608 = AXIS2_PLACEMENT_3D ( 'NONE', #590, #206, #325 ) ;
#609 = DIRECTION ( 'NONE',  ( 0.000000000000000000, -0.000000000000000000, 1.000000000000000000 ) ) ;
#610 = EDGE_CURVE ( 'NONE', #601, #509, #300, .T. ) ;
#611 = CARTESIAN_POINT ( 'NONE',  ( -3.749999999999998668, -3.799999999999999822, 8.040000000000000924 ) ) ;
#612 = ORIENTED_EDGE ( 'NONE', *, *, #532, .F. ) ;
#613 = EDGE_CURVE ( 'NONE', #623, #667, #304, .T. ) ;
#614 = DIRECTION ( 'NONE',  ( 0.000000000000000000, -0.000000000000000000, 1.000000000000000000 ) ) ;
#615 = VERTEX_POINT ( 'NONE', #180 ) ;
#616 = DIRECTION ( 'NONE',  ( 0.000000000000000000, 0.000000000000000000, -1.000000000000000000 ) ) ;
#617 = DIRECTION ( 'NONE',  ( 0.000000000000000000, 0.000000000000000000, -1.000000000000000000 ) ) ;
#618 = ORIENTED_EDGE ( 'NONE', *, *, #625, .T. ) ;
#619 = DIRECTION ( 'NONE',  ( 0.000000000000000000, 0.000000000000000000, 1.000000000000000000 ) ) ;
#620 = AXIS2_PLACEMENT_3D ( 'NONE', #464, #576, #526 ) ;
#621 = EDGE_LOOP ( 'NONE', ( #666, #795, #715, #548 ) ) ;
#622 = CARTESIAN_POINT ( 'NONE',  ( 3.750000000000000444, -3.799999999999999822, 8.040000000000000924 ) ) ;
#623 = VERTEX_POINT ( 'NONE', #751 ) ;
#624 = EDGE_CURVE ( 'NONE', #75, #159, #247, .T. ) ;
#625 = EDGE_CURVE ( 'NONE', #630, #489, #695, .T. ) ;
#626 = CARTESIAN_POINT ( 'NONE',  ( -3.749999999999998668, -3.799999999999999822, 3.490000000000000213 ) ) ;
#627 = EDGE_LOOP ( 'NONE', ( #207, #105 ) ) ;
#628 = CARTESIAN_POINT ( 'NONE',  ( -3.749999999999998668, 0.000000000000000000, 7.590000000000000746 ) ) ;
#629 = ORIENTED_EDGE ( 'NONE', *, *, #415, .F. ) ;
#630 = VERTEX_POINT ( 'NONE', #257 ) ;
#631 = AXIS2_PLACEMENT_3D ( 'NONE', #762, #204, #641 ) ;
#632 = DIRECTION ( 'NONE',  ( 0.000000000000000000, -0.000000000000000000, -1.000000000000000000 ) ) ;
#633 = ORIENTED_EDGE ( 'NONE', *, *, #248, .T. ) ;
#634 = CARTESIAN_POINT ( 'NONE',  ( 6.250000000000000000, 15.69999999999999929, 14.50000000000000000 ) ) ;
#635 = AXIS2_PLACEMENT_3D ( 'NONE', #440, #131, #61 ) ;
#636 = ORIENTED_EDGE ( 'NONE', *, *, #753, .T. ) ;
#637 = ADVANCED_FACE ( 'NONE', ( #756 ), #572, .T. ) ;
#638 = CARTESIAN_POINT ( 'NONE',  ( 3.749999999999996003, -3.799999999999999822, -11.96000000000000085 ) ) ;
#639 = FACE_OUTER_BOUND ( 'NONE', #574, .T. ) ;
#640 = AXIS2_PLACEMENT_3D ( 'NONE', #560, #547, #297 ) ;
#641 = DIRECTION ( 'NONE',  ( 0.000000000000000000, 0.000000000000000000, -1.000000000000000000 ) ) ;
#642 = VECTOR ( 'NONE', #746, 1000.000000000000000 ) ;
#643 = CARTESIAN_POINT ( 'NONE',  ( 3.750000000000000444, -3.799999999999999822, 8.040000000000000924 ) ) ;
#644 = CARTESIAN_POINT ( 'NONE',  ( -3.749999999999998668, -3.799999999999999822, 3.040000000000000036 ) ) ;
#645 = ORIENTED_EDGE ( 'NONE', *, *, #296, .F. ) ;
#646 = PLANE ( 'NONE',  #58 ) ;
#647 = AXIS2_PLACEMENT_3D ( 'NONE', #384, #493, #135 ) ;
#648 = LINE ( 'NONE', #659, #39 ) ;
#649 = PRODUCT_CONTEXT ( 'NONE', #490, 'mechanical' ) ;
#650 = AXIS2_PLACEMENT_3D ( 'NONE', #469, #410, #609 ) ;
#651 = ADVANCED_FACE ( 'NONE', ( #430 ), #699, .T. ) ;
#652 = DIRECTION ( 'NONE',  ( -0.000000000000000000, -0.000000000000000000, 1.000000000000000000 ) ) ;
#653 = ORIENTED_EDGE ( 'NONE', *, *, #115, .T. ) ;
#654 = EDGE_LOOP ( 'NONE', ( #249, #549, #419, #741 ) ) ;
#655 = CARTESIAN_POINT ( 'NONE',  ( -3.749999999999998668, -3.799999999999999822, 8.040000000000000924 ) ) ;
#656 = PLANE ( 'NONE',  #178 ) ;
#657 = EDGE_CURVE ( 'NONE', #774, #159, #501, .T. ) ;
#658 = EDGE_CURVE ( 'NONE', #556, #322, #175, .T. ) ;
#659 = CARTESIAN_POINT ( 'NONE',  ( 6.250000000000000000, 15.69999999999999929, 14.50000000000000000 ) ) ;
#660 = VECTOR ( 'NONE', #759, 1000.000000000000000 ) ;
#661 = EDGE_LOOP ( 'NONE', ( #362, #653, #448, #500 ) ) ;
#662 = DIRECTION ( 'NONE',  ( 0.000000000000000000, 1.000000000000000000, 0.000000000000000000 ) ) ;
#663 = DIRECTION ( 'NONE',  ( 0.000000000000000000, 1.000000000000000000, 0.000000000000000000 ) ) ;
#664 = DIRECTION ( 'NONE',  ( 0.000000000000000000, 0.000000000000000000, 1.000000000000000000 ) ) ;
#665 = DIRECTION ( 'NONE',  ( 0.000000000000000000, 1.000000000000000000, 0.000000000000000000 ) ) ;
#666 = ORIENTED_EDGE ( 'NONE', *, *, #25, .T. ) ;
#667 = VERTEX_POINT ( 'NONE', #370 ) ;
#668 = DIRECTION ( 'NONE',  ( 0.000000000000000000, 1.000000000000000000, 0.000000000000000000 ) ) ;
#669 = ORIENTED_EDGE ( 'NONE', *, *, #162, .T. ) ;
#670 = AXIS2_PLACEMENT_3D ( 'NONE', #622, #485, #507 ) ;
#671 = ORIENTED_EDGE ( 'NONE', *, *, #658, .T. ) ;
#672 = FACE_OUTER_BOUND ( 'NONE', #570, .T. ) ;
#673 = EDGE_LOOP ( 'NONE', ( #276, #286, #393, #245 ) ) ;
#674 = CARTESIAN_POINT ( 'NONE',  ( 3.749999999999999556, -3.799999999999999822, 3.039999999999999147 ) ) ;
#675 = CIRCLE ( 'NONE', #438, 0.4500000000000007327 ) ;
#676 = CARTESIAN_POINT ( 'NONE',  ( 0.000000000000000000, 0.000000000000000000, 0.000000000000000000 ) ) ;
#677 = VERTEX_POINT ( 'NONE', #562 ) ;
#678 = DIRECTION ( 'NONE',  ( 0.000000000000000000, 1.000000000000000000, 0.000000000000000000 ) ) ;
#679 = VECTOR ( 'NONE', #663, 1000.000000000000000 ) ;
#680 = CIRCLE ( 'NONE', #327, 0.4500000000000007327 ) ;
#681 = LINE ( 'NONE', #116, #538 ) ;
#682 = ORIENTED_EDGE ( 'NONE', *, *, #465, .T. ) ;
#683 = CARTESIAN_POINT ( 'NONE',  ( 3.750000000000000444, -3.799999999999999822, 8.040000000000000924 ) ) ;
#684 = CARTESIAN_POINT ( 'NONE',  ( -3.749999999999998668, -3.799999999999999822, 3.040000000000000036 ) ) ;
#685 = DIRECTION ( 'NONE',  ( 0.000000000000000000, 1.000000000000000000, 0.000000000000000000 ) ) ;
#686 = EDGE_CURVE ( 'NONE', #281, #774, #344, .T. ) ;
#687 = VERTEX_POINT ( 'NONE', #425 ) ;
#688 = DIRECTION ( 'NONE',  ( 0.000000000000000000, 0.000000000000000000, -1.000000000000000000 ) ) ;
#689 = ORIENTED_EDGE ( 'NONE', *, *, #479, .T. ) ;
#690 = AXIS2_PLACEMENT_3D ( 'NONE', #54, #424, #60 ) ;
#691 = CARTESIAN_POINT ( 'NONE',  ( 3.750000000000000444, -3.799999999999999822, 8.490000000000000213 ) ) ;
#692 = ORIENTED_EDGE ( 'NONE', *, *, #202, .T. ) ;
#693 = AXIS2_PLACEMENT_3D ( 'NONE', #158, #156, #664 ) ;
#694 = CARTESIAN_POINT ( 'NONE',  ( 0.000000000000000000, 15.69999999999999929, 0.000000000000000000 ) ) ;
#695 = LINE ( 'NONE', #634, #660 ) ;
#696 = ORIENTED_EDGE ( 'NONE', *, *, #211, .F. ) ;
#697 = DIRECTION ( 'NONE',  ( 0.000000000000000000, -1.000000000000000000, 0.000000000000000000 ) ) ;
#698 = ORIENTED_EDGE ( 'NONE', *, *, #334, .T. ) ;
#699 = CYLINDRICAL_SURFACE ( 'NONE', #593, 0.4500000000000007327 ) ;
#700 = EDGE_CURVE ( 'NONE', #585, #413, #152, .T. ) ;
#701 = ORIENTED_EDGE ( 'NONE', *, *, #219, .F. ) ;
#702 = DIRECTION ( 'NONE',  ( -1.000000000000000000, 0.000000000000000000, -0.000000000000000000 ) ) ;
#703 =( LENGTH_UNIT ( ) NAMED_UNIT ( * ) SI_UNIT ( .MILLI., .METRE. ) );
#704 = DIRECTION ( 'NONE',  ( 1.000000000000000000, 0.000000000000000000, 0.000000000000000000 ) ) ;
#705 = AXIS2_PLACEMENT_3D ( 'NONE', #398, #212, #19 ) ;
#706 = ADVANCED_FACE ( 'NONE', ( #46 ), #498, .T. ) ;
#707 = CARTESIAN_POINT ( 'NONE',  ( -3.749999999999998668, -3.799999999999999822, -11.96000000000000085 ) ) ;
#708 = DIRECTION ( 'NONE',  ( 0.000000000000000000, 0.000000000000000000, 1.000000000000000000 ) ) ;
#709 = AXIS2_PLACEMENT_3D ( 'NONE', #511, #195, #447 ) ;
#710 = ORIENTED_EDGE ( 'NONE', *, *, #718, .F. ) ;
#711 = LINE ( 'NONE', #382, #210 ) ;
#712 = CARTESIAN_POINT ( 'NONE',  ( -3.749999999999998668, -3.799999999999999822, 2.590000000000000302 ) ) ;
#713 = CARTESIAN_POINT ( 'NONE',  ( -6.250000000000000000, 15.69999999999999929, 14.50000000000000000 ) ) ;
#714 = CARTESIAN_POINT ( 'NONE',  ( -3.749999999999998668, -3.799999999999999822, 3.040000000000000036 ) ) ;
#715 = ORIENTED_EDGE ( 'NONE', *, *, #625, .F. ) ;
#716 = AXIS2_PLACEMENT_3D ( 'NONE', #234, #805, #800 ) ;
#717 = FACE_BOUND ( 'NONE', #416, .T. ) ;
#718 = EDGE_CURVE ( 'NONE', #585, #96, #119, .T. ) ;
#719 = EDGE_CURVE ( 'NONE', #774, #281, #13, .T. ) ;
#720 = CARTESIAN_POINT ( 'NONE',  ( 3.750000000000000444, 0.000000000000000000, 8.490000000000000213 ) ) ;
#721 = CIRCLE ( 'NONE', #361, 0.4500000000000007327 ) ;
#722 = DIRECTION ( 'NONE',  ( 0.000000000000000000, 0.000000000000000000, 1.000000000000000000 ) ) ;
#723 = CARTESIAN_POINT ( 'NONE',  ( -6.250000000000000000, 15.69999999999999929, 14.50000000000000000 ) ) ;
#724 = DIRECTION ( 'NONE',  ( 0.000000000000000000, 1.000000000000000000, 0.000000000000000000 ) ) ;
#725 = EDGE_CURVE ( 'NONE', #65, #687, #375, .T. ) ;
#726 = PRODUCT_DEFINITION_CONTEXT ( 'detailed design', #786, 'design' ) ;
#727 = EDGE_CURVE ( 'NONE', #93, #630, #312, .T. ) ;
#728 = FACE_OUTER_BOUND ( 'NONE', #49, .T. ) ;
#729 = ORIENTED_EDGE ( 'NONE', *, *, #115, .F. ) ;
#730 = CARTESIAN_POINT ( 'NONE',  ( -3.749999999999998668, -3.799999999999999822, 3.490000000000000213 ) ) ;
#731 = EDGE_CURVE ( 'NONE', #65, #217, #558, .T. ) ;
#732 = AXIS2_PLACEMENT_3D ( 'NONE', #17, #665, #514 ) ;
#733 = ORIENTED_EDGE ( 'NONE', *, *, #342, .T. ) ;
#734 = EDGE_LOOP ( 'NONE', ( #51, #343, #565, #373 ) ) ;
#735 = DIRECTION ( 'NONE',  ( 0.000000000000000000, 1.000000000000000000, 0.000000000000000000 ) ) ;
#736 = ORIENTED_EDGE ( 'NONE', *, *, #613, .F. ) ;
#737 = FACE_OUTER_BOUND ( 'NONE', #755, .T. ) ;
#738 = DIRECTION ( 'NONE',  ( 0.000000000000000000, 1.000000000000000000, 0.000000000000000000 ) ) ;
#739 = PLANE ( 'NONE',  #176 ) ;
#740 = ADVANCED_FACE ( 'NONE', ( #639 ), #339, .T. ) ;
#741 = ORIENTED_EDGE ( 'NONE', *, *, #359, .F. ) ;
#742 = PLANE ( 'NONE',  #716 ) ;
#743 = VECTOR ( 'NONE', #55, 1000.000000000000000 ) ;
#744 = ORIENTED_EDGE ( 'NONE', *, *, #613, .T. ) ;
#745 = PLANE ( 'NONE',  #374 ) ;
#746 = DIRECTION ( 'NONE',  ( 0.000000000000000000, 1.000000000000000000, 0.000000000000000000 ) ) ;
#747 = CIRCLE ( 'NONE', #346, 0.4500000000000007327 ) ;
#748 = CARTESIAN_POINT ( 'NONE',  ( -3.749999999999998668, -3.799999999999999822, 12.58999999999999631 ) ) ;
#749 = CIRCLE ( 'NONE', #579, 0.4499999999999999001 ) ;
#750 = VERTEX_POINT ( 'NONE', #6 ) ;
#751 = CARTESIAN_POINT ( 'NONE',  ( 3.749999999999996003, -3.799999999999999822, -11.50999999999999979 ) ) ;
#752 = ADVANCED_FACE ( 'NONE', ( #262 ), #163, .T. ) ;
#753 = EDGE_CURVE ( 'NONE', #128, #136, #401, .T. ) ;
#754 = CARTESIAN_POINT ( 'NONE',  ( -3.749999999999998668, -3.799999999999999822, 8.040000000000000924 ) ) ;
#755 = EDGE_LOOP ( 'NONE', ( #381, #7, #604, #710 ) ) ;
#756 = FACE_OUTER_BOUND ( 'NONE', #673, .T. ) ;
#757 = LINE ( 'NONE', #443, #802 ) ;
#758 = EDGE_LOOP ( 'NONE', ( #809, #389 ) ) ;
#759 = DIRECTION ( 'NONE',  ( 1.000000000000000000, -0.000000000000000000, -0.000000000000000000 ) ) ;
#760 = ORIENTED_EDGE ( 'NONE', *, *, #396, .F. ) ;
#761 = COLOUR_RGB ( '',0.7921568627450980005, 0.8196078431372548767, 0.9333333333333333481 ) ;
#762 = CARTESIAN_POINT ( 'NONE',  ( 3.750000000000002220, 0.000000000000000000, 13.03999999999999737 ) ) ;
#763 = ADVANCED_FACE ( 'NONE', ( #149 ), #588, .T. ) ;
#764 = EDGE_LOOP ( 'NONE', ( #409, #437 ) ) ;
#765 = AXIS2_PLACEMENT_3D ( 'NONE', #329, #776, #143 ) ;
#766 = DIRECTION ( 'NONE',  ( 0.000000000000000000, 0.000000000000000000, -1.000000000000000000 ) ) ;
#767 = CARTESIAN_POINT ( 'NONE',  ( 3.749999999999996003, -3.799999999999999822, -11.50999999999999979 ) ) ;
#768 = CARTESIAN_POINT ( 'NONE',  ( 6.250000000000000000, 0.000000000000000000, -14.50000000000000000 ) ) ;
#769 = EDGE_CURVE ( 'NONE', #365, #96, #24, .T. ) ;
#770 = DIRECTION ( 'NONE',  ( 0.000000000000000000, 1.000000000000000000, 0.000000000000000000 ) ) ;
#771 = ORIENTED_EDGE ( 'NONE', *, *, #657, .F. ) ;
#772 = DIRECTION ( 'NONE',  ( 0.000000000000000000, -1.000000000000000000, 0.000000000000000000 ) ) ;
#773 = DIRECTION ( 'NONE',  ( 0.000000000000000000, 1.000000000000000000, 0.000000000000000000 ) ) ;
#774 = VERTEX_POINT ( 'NONE', #151 ) ;
#775 = CARTESIAN_POINT ( 'NONE',  ( -3.749999999999998668, -3.799999999999999822, 8.490000000000000213 ) ) ;
#776 = DIRECTION ( 'NONE',  ( 0.000000000000000000, 1.000000000000000000, -0.000000000000000000 ) ) ;
#777 = FACE_OUTER_BOUND ( 'NONE', #235, .T. ) ;
#778 = VERTEX_POINT ( 'NONE', #201 ) ;
#779 = ADVANCED_FACE ( 'NONE', ( #455 ), #270, .T. ) ;
#780 = ADVANCED_FACE ( 'NONE', ( #777 ), #392, .T. ) ;
#781 = CIRCLE ( 'NONE', #631, 0.4500000000000007327 ) ;
#782 = DIRECTION ( 'NONE',  ( 0.000000000000000000, 1.000000000000000000, 0.000000000000000000 ) ) ;
#783 = CIRCLE ( 'NONE', #140, 0.4500000000000007327 ) ;
#784 = EDGE_LOOP ( 'NONE', ( #417, #193 ) ) ;
#785 = CARTESIAN_POINT ( 'NONE',  ( 3.750000000000002220, -3.799999999999999822, 13.48999999999999844 ) ) ;
#786 = APPLICATION_CONTEXT ( 'automotive_design' ) ;
#787 = CARTESIAN_POINT ( 'NONE',  ( 3.750000000000000444, 0.000000000000000000, 7.589999999999999858 ) ) ;
#788 = ORIENTED_EDGE ( 'NONE', *, *, #725, .F. ) ;
#789 = AXIS2_PLACEMENT_3D ( 'NONE', #177, #735, #360 ) ;
#790 = CARTESIAN_POINT ( 'NONE',  ( -3.749999999999998668, 0.000000000000000000, 13.03999999999999737 ) ) ;
#791 = CARTESIAN_POINT ( 'NONE',  ( -6.250000000000000000, 0.000000000000000000, 14.50000000000000000 ) ) ;
#792 = ORIENTED_EDGE ( 'NONE', *, *, #142, .F. ) ;
#793 = CYLINDRICAL_SURFACE ( 'NONE', #575, 0.4500000000000007327 ) ;
#794 = FACE_BOUND ( 'NONE', #784, .T. ) ;
#795 = ORIENTED_EDGE ( 'NONE', *, *, #342, .F. ) ;
#796 = AXIS2_PLACEMENT_3D ( 'NONE', #242, #820, #766 ) ;
#797 = DIRECTION ( 'NONE',  ( 0.000000000000000000, 0.000000000000000000, 1.000000000000000000 ) ) ;
#798 = VECTOR ( 'NONE', #652, 1000.000000000000000 ) ;
#799 = EDGE_CURVE ( 'NONE', #217, #65, #224, .T. ) ;
#800 = DIRECTION ( 'NONE',  ( 0.000000000000000000, -0.000000000000000000, -1.000000000000000000 ) ) ;
#801 = ORIENTED_EDGE ( 'NONE', *, *, #139, .T. ) ;
#802 = VECTOR ( 'NONE', #137, 1000.000000000000000 ) ;
#803 = DIRECTION ( 'NONE',  ( 0.000000000000000000, -0.000000000000000000, -1.000000000000000000 ) ) ;
#804 = PRODUCT ( 'Finder_41.52', 'Finder_41.52', '', ( #649 ) ) ;
#805 = DIRECTION ( 'NONE',  ( 0.000000000000000000, -1.000000000000000000, 0.000000000000000000 ) ) ;
#806 = VECTOR ( 'NONE', #126, 1000.000000000000000 ) ;
#807 = ORIENTED_EDGE ( 'NONE', *, *, #44, .T. ) ;
#808 = CARTESIAN_POINT ( 'NONE',  ( 6.250000000000000000, 15.69999999999999929, -14.50000000000000000 ) ) ;
#809 = ORIENTED_EDGE ( 'NONE', *, *, #686, .F. ) ;
#810 = EDGE_CURVE ( 'NONE', #69, #603, #454, .T. ) ;
#811 = DIRECTION ( 'NONE',  ( 0.000000000000000000, 0.000000000000000000, 1.000000000000000000 ) ) ;
#812 = CARTESIAN_POINT ( 'NONE',  ( 3.749999999999999556, -3.799999999999999822, 3.039999999999999147 ) ) ;
#813 = AXIS2_PLACEMENT_3D ( 'NONE', #303, #566, #811 ) ;
#814 = CYLINDRICAL_SURFACE ( 'NONE', #789, 0.4500000000000007327 ) ;
#815 = ORIENTED_EDGE ( 'NONE', *, *, #25, .F. ) ;
#816 = CARTESIAN_POINT ( 'NONE',  ( 3.749999999999999556, -3.799999999999999822, 3.039999999999999147 ) ) ;
#817 = ORIENTED_EDGE ( 'NONE', *, *, #368, .T. ) ;
#818 = DIRECTION ( 'NONE',  ( 0.000000000000000000, 1.000000000000000000, 0.000000000000000000 ) ) ;
#819 = ORIENTED_EDGE ( 'NONE', *, *, #20, .T. ) ;
#820 = DIRECTION ( 'NONE',  ( 0.000000000000000000, 1.000000000000000000, -0.000000000000000000 ) ) ;
#821 = CARTESIAN_POINT ( 'NONE',  ( -6.250000000000000000, 15.69999999999999929, 14.50000000000000000 ) ) ;
#822 = DIRECTION ( 'NONE',  ( 0.000000000000000000, 0.000000000000000000, -1.000000000000000000 ) ) ;
#823 = FACE_OUTER_BOUND ( 'NONE', #355, .T. ) ;
#824 = ORIENTED_EDGE ( 'NONE', *, *, #480, .F. ) ;
#825 = CARTESIAN_POINT ( 'NONE',  ( -3.749999999999998668, -3.799999999999999822, -11.50999999999999979 ) ) ;
#826 = DIRECTION ( 'NONE',  ( 0.000000000000000000, 1.000000000000000000, -0.000000000000000000 ) ) ;
#827 = LINE ( 'NONE', #261, #169 ) ;
ENDSEC;
END-ISO-10303-21;
